<?xml version="1.0" encoding="utf-8"?>
<!-- Generator: Adobe Illustrator 22.1.0, SVG Export Plug-In . SVG Version: 6.00 Build 0)  -->
<svg version="1.1" id="Layer_1" xmlns="http://www.w3.org/2000/svg" xmlns:xlink="http://www.w3.org/1999/xlink" x="0px" y="0px"
	 viewBox="0 0 600 600" style="enable-background:new 0 0 600 600;" xml:space="preserve">
<style type="text/css">
	.st0{fill:#676767;}
	.st1{fill:#FEFEFE;}
	.st2{fill:#6784B6;}
	.st3{fill:#5676AC;}
	.st4{fill:#EDF0F5;}
</style>
<g>
	<g>
		<rect x="-1" y="1" class="st0" width="601" height="598"/>
		<path class="st1" d="M320.8,599.1c0.1-1.7,0.2-3.3,0.2-5c0-73.3,0-146.6,0-219.9c0-1.8,0-3.6,0-5.8c-26.1,0-51.7,0-77.8,0
			c0-30.3,0-60.1,0-90.6c25.7,0,51.4,0,77.5,0c0.1-2.2,0.2-3.8,0.2-5.4c0-24.8-0.9-49.7,0.3-74.5c1.2-25.8,9.2-49.7,26.3-69.9
			c17.6-20.8,40.4-32,67.1-34.9c13-1.4,26.1-1.9,39.1-1.9c12.7,0,25.4,1.1,38.2,1.8c4.1,0.2,8.3,0.4,12.3,1.2
			c1.3,0.3,3.3,2.2,3.3,3.5c0.2,25.6,0.1,51.3,0.1,77.6c-2.1,0.1-4,0.3-6,0.3c-16.7,0.2-33.3-0.1-50,0.6c-10,0.4-19.9,2.2-27.5,10.1
			c-5.9,6.2-8.9,13.8-9.1,21.8c-0.6,22.5-0.3,45-0.4,67.5c0,0.5,0.2,1,0.5,2c29.3,0,58.7,0,88.9,0c-3.9,30.4-7.7,60.2-11.6,90.6
			c-25.7,0-51.4,0-77.4,0c-0.1,2-0.3,3.5-0.3,4.9c0,74.5,0,149,0,223.4c0,1.2,0.2,2.3,0.2,3.5c-31,0-62,0-93,0
			c-0.3-0.4-0.5-0.7-0.8-1.1L320.8,599.1z"/>
		<path class="st2" d="M565,2c-2.1,0.3-4.2,1-6.3,1"/>
		<path class="st3" d="M320,602c0.3-0.3,0.6-0.6,0.8-0.9l0.4-0.1c-0.1,0.4-0.1,0.7-0.2,1.1C320.7,602,320.3,602,320,602z"/>
		<path class="st4" d="M321,602c0.1-0.4,0.1-0.7,0.2-1.1c0.3,0.4,0.5,0.7,0.8,1.1C321.7,602,321.3,602,321,602z"/>
	</g>
</g>
</svg>
