<?xml version="1.0" encoding="utf-8"?>
<!-- Generator: Adobe Illustrator 22.1.0, SVG Export Plug-In . SVG Version: 6.00 Build 0)  -->
<svg version="1.1" id="Layer_1" xmlns="http://www.w3.org/2000/svg" xmlns:xlink="http://www.w3.org/1999/xlink" x="0px" y="0px"
	 viewBox="0 0 600 600" style="enable-background:new 0 0 600 600;" xml:space="preserve">
<style type="text/css">
	.st0{fill:#4B6EA7;}
	.st1{fill:#FEFEFE;}
	.st2{fill:#6784B6;}
	.st3{fill:#5C7CB0;}
	.st4{fill:#5676AC;}
	.st5{fill:#EDF0F5;}
</style>
<g>
	<g>
		<path class="st0" d="M320,601c-106.3,0-212.7,0-319,0C1,401,1,201,1,1c22.3,0,44.7,0,67,0c2.1,0.3,4.2,1,6.3,1
			c161.4,0,322.9,0,484.3,0c2.1,0,4.2-0.6,6.3-1c12,0,24,0,36,0c0,19.7,0,39.3,0,59c-0.3,2.1-1,4.2-1,6.3c-0.1,37.4,0,74.9,0,112.3
			c0,2.1,0.6,4.2,0.9,6.3c0,138.6,0,277.1,0,416c-62,0-124,0-186,0c-0.1-1.2-0.2-2.3-0.2-3.5c0-74.5,0-149,0-223.4
			c0-1.5,0.2-2.9,0.3-4.9c26,0,51.7,0,77.4,0c3.9-30.4,7.7-60.2,11.6-90.6c-30.1,0-59.5,0-88.9,0c-0.2-1-0.5-1.5-0.5-2
			c0-22.5-0.2-45,0.4-67.5c0.2-8,3.2-15.6,9.1-21.8c7.6-8,17.5-9.7,27.5-10.1c16.6-0.7,33.3-0.4,50-0.6c1.9,0,3.8-0.2,6-0.3
			c0-26.3,0-51.9-0.1-77.6c0-1.2-2-3.2-3.3-3.5c-4-0.8-8.2-1-12.3-1.2c-12.7-0.7-25.4-1.8-38.2-1.8c-13.1,0-26.2,0.5-39.1,1.9
			c-26.7,2.9-49.5,14.2-67.1,34.9c-17.1,20.1-25,44.1-26.3,69.9c-1.2,24.8-0.3,49.6-0.3,74.5c0,1.6-0.1,3.2-0.2,5.4
			c-26.1,0-51.8,0-77.5,0c0,30.5,0,60.3,0,90.6c26,0,51.6,0,77.8,0c0,2.2,0,4,0,5.8c0,73.3,0,146.6,0,219.9c0,1.7-0.1,3.3-0.2,5
			C320.6,600.4,320.3,600.7,320,601z"/>
		<path class="st1" d="M320.8,600.1c0.1-1.7,0.2-3.3,0.2-5c0-73.3,0-146.6,0-219.9c0-1.8,0-3.6,0-5.8c-26.1,0-51.7,0-77.8,0
			c0-30.3,0-60.1,0-90.6c25.7,0,51.4,0,77.5,0c0.1-2.2,0.2-3.8,0.2-5.4c0-24.8-0.9-49.7,0.3-74.5c1.2-25.8,9.2-49.7,26.3-69.9
			c17.6-20.8,40.4-32,67.1-34.9c13-1.4,26.1-1.9,39.1-1.9c12.7,0,25.4,1.1,38.2,1.8c4.1,0.2,8.3,0.4,12.3,1.2
			c1.3,0.3,3.3,2.2,3.3,3.5c0.2,25.6,0.1,51.3,0.1,77.6c-2.1,0.1-4,0.3-6,0.3c-16.7,0.2-33.3-0.1-50,0.6c-10,0.4-19.9,2.2-27.5,10.1
			c-5.9,6.2-8.9,13.8-9.1,21.8c-0.6,22.5-0.3,45-0.4,67.5c0,0.5,0.2,1,0.5,2c29.3,0,58.7,0,88.9,0c-3.9,30.4-7.7,60.2-11.6,90.6
			c-25.7,0-51.4,0-77.4,0c-0.1,2-0.3,3.5-0.3,4.9c0,74.5,0,149,0,223.4c0,1.2,0.2,2.3,0.2,3.5c-31,0-62,0-93,0
			c-0.3-0.4-0.5-0.7-0.8-1.1L320.8,600.1z"/>
		<path class="st2" d="M565,1c-2.1,0.3-4.2,1-6.3,1C397.2,2,235.8,2,74.3,2c-2.1,0-4.2-0.6-6.3-1C233.7,1,399.3,1,565,1z"/>
		<path class="st3" d="M601,185c-0.3-2.1-0.9-4.2-0.9-6.3c-0.1-37.4-0.1-74.9,0-112.3c0-2.1,0.6-4.2,1-6.3
			C601,101.7,601,143.3,601,185z"/>
		<path class="st4" d="M320,601c0.3-0.3,0.6-0.6,0.8-0.9l0.4-0.1c-0.1,0.4-0.1,0.7-0.2,1.1C320.7,601,320.3,601,320,601z"/>
		<path class="st5" d="M321,601c0.1-0.4,0.1-0.7,0.2-1.1c0.3,0.4,0.5,0.7,0.8,1.1C321.7,601,321.3,601,321,601z"/>
	</g>
</g>
</svg>
