<?xml version="1.0" encoding="utf-8"?>
<!-- Generator: Adobe Illustrator 22.1.0, SVG Export Plug-In . SVG Version: 6.00 Build 0)  -->
<svg version="1.1" id="Layer_1" xmlns="http://www.w3.org/2000/svg" xmlns:xlink="http://www.w3.org/1999/xlink" x="0px" y="0px"
	 viewBox="0 0 600 600" style="enable-background:new 0 0 600 600;" xml:space="preserve">
<style type="text/css">
	.st0{fill:#676767;}
	.st1{fill:#FEFCFC;}
	.st2{fill:#FEFCFB;}
	.st3{fill:#E85236;}
	.st4{fill:#E95236;}
	.st5{fill:#FFFFFF;}
</style>
<g>
	<g>
		<path class="st0" d="M1,601C1,400.3,1,199.7,1-1c200,0,400,0,600,0c0,200.7,0,401.3,0,602C401,601,201,601,1,601z M428,260.9
			c-13.6,0-27.3-0.1-40.9,0.1c-2,0-4.1,0.9-6.1,1.4c0,9.9,0,19.9,0,30.5c15.9,0,31.4,0,47.5,0c0,17,0,33.2,0,49.5
			c10.4,0,20.3,0,30.7,0c0-16.7,0-33,0-49.8c16.6,0,32.7,0,49.4,0c0-10.5,0-20.4,0-30.4c-2.1-0.4-4.1-1.3-6.2-1.3
			c-12.4-0.1-24.8-0.1-37.2,0c-1.7,0-3.5,0.7-5.2,1.1c-0.3-1.7-1-3.4-1-5.1c-0.1-12.5-0.2-25.1,0-37.6c0.1-4-1.3-5.2-5.1-5.1
			c-6.7,0.3-13.3,0.3-20,0c-4.3-0.2-5.8,1-5.7,5.6C428.4,233.5,428.1,247.2,428,260.9z M366.9,83.9c-0.2-0.5-0.4-0.9-0.7-1.4
			c-2,0-3.9,0-5.9,0c-39.2,0-78.3-0.3-117.5,0.2c-12.6,0.1-25.4,1.1-37.7,3.6c-46.8,9.3-78.7,41.7-82.6,86.8
			c-2.6,29.4,4.7,55.8,26.1,77c16.2,16,36.4,23.6,58.5,26.8c7.2,1,14.5,1.4,22.3,2.1c-9.2,21.5-7,40.7,11.5,57.3c-3.8,0-6.3,0-8.8,0
			c-22.6,0.5-44.9,2.9-66.6,9.4c-21.4,6.4-40.8,16.3-55.2,34.3c-19.8,24.7-26.2,69.4,1.6,98c14,14.4,31,23.6,49.8,29.6
			c36.3,11.6,73.3,12.7,110.6,6.1c22.2-3.9,43-11.8,61.2-25.6c44.5-33.6,44-87,21.8-120c-9.5-14.2-22.4-25.1-35.5-35.7
			c-10.4-8.3-21-16.5-30.4-25.9c-13.2-13-13.4-25.5-1-39.2c6.6-7.3,14.4-13.4,21.9-19.7c45-38,35.7-94.9,10.8-123.3
			c-3.6-4.2-8-7.7-13-12.4c9.6,0,18.1,0.1,26.5-0.1c1.7,0,4-0.1,5.1-1.2C349,101.8,357.9,92.8,366.9,83.9z"/>
		<path class="st1" d="M366.9,83.9c-9,8.9-17.9,17.9-27,26.6c-1.1,1-3.4,1.1-5.1,1.2c-8.4,0.1-16.9,0.1-26.5,0.1
			c5,4.7,9.4,8.3,13,12.4c24.9,28.4,34.2,85.3-10.8,123.3c-7.5,6.3-15.3,12.5-21.9,19.7c-12.4,13.7-12.2,26.2,1,39.2
			c9.4,9.3,20.1,17.5,30.4,25.9c13.2,10.6,26,21.5,35.5,35.7c22.1,33,22.6,86.4-21.8,120c-18.2,13.8-39,21.7-61.2,25.6
			c-37.3,6.6-74.3,5.4-110.6-6.1c-18.8-6-35.8-15.2-49.8-29.6c-27.8-28.6-21.4-73.3-1.6-98c14.4-17.9,33.7-27.9,55.2-34.3
			c21.7-6.5,44-8.8,66.6-9.4c2.5-0.1,5,0,8.8,0c-18.5-16.6-20.7-35.8-11.5-57.3c-7.9-0.7-15.1-1-22.3-2.1
			c-22.1-3.2-42.3-10.8-58.5-26.8c-21.4-21.2-28.7-47.6-26.1-77c3.9-45.1,35.8-77.5,82.6-86.8c12.3-2.5,25.1-3.5,37.7-3.6
			c39.2-0.4,78.3-0.2,117.5-0.2c2,0,3.9,0,5.9,0C366.5,83,366.7,83.4,366.9,83.9z M234.6,493c19.9-0.5,42.2-3.6,61.9-16.4
			c20.8-13.5,30.7-32.8,28.7-57.8c-1.8-22.4-13.6-39.1-31.9-51.2c-34.2-22.7-87.2-21.2-121.4,3c-13.9,9.8-24.9,22.1-28.6,39
			c-5.5,25,3.6,45.4,22.4,61.6C184.6,487.5,207.2,493.2,234.6,493z M291.9,201.7c-0.9-7.8-1.2-14.2-2.3-20.4
			c-4.5-24.8-14.4-46.9-33.7-63.8c-30.1-26.3-69.8-15.5-82.3,22.4c-6.5,19.8-5.8,39.6,0.5,59.1c8.8,27.3,25.1,48.2,53.4,57.3
			c28.6,9.2,53.3-4.3,61.1-33.3C290.6,215.7,291,207.9,291.9,201.7z"/>
		<path class="st2" d="M508.6,262.2c0,10,0,20,0,30.4c-16.7,0-32.7,0-49.4,0c0,16.8,0,33,0,49.8c-10.4,0-20.3,0-30.7,0
			c0-16.2,0-32.5,0-49.5c-16.1,0-31.6,0-47.5,0c0-10.6,0-20.6,0-30.5c14.1,0,28.2,0.1,42.3-0.1c1.6,0,3.1-0.9,4.7-1.5
			c0.1-13.7,0.4-27.4,0.2-41.1c-0.1-4.6,1.4-5.8,5.7-5.6c6.6,0.3,13.3,0.3,20,0c3.9-0.2,5.2,1,5.1,5.1c-0.2,12.5-0.1,25.1,0,37.6
			c0,1.7,0.6,3.4,1,5.1C476.2,262.1,492.4,262.1,508.6,262.2z"/>
		<path class="st3" d="M502.4,260.9c2,0.1,4.1,0.9,6.2,1.3"/>
		<path class="st3" d="M465.2,260.9"/>
		<path class="st3" d="M460,262"/>
		<path class="st4" d="M423.3,262.4"/>
		<path class="st4" d="M428,260.9"/>
		<path class="st4" d="M381,262.5"/>
		<path class="st0" d="M234.6,493c-27.4,0.2-50.1-5.5-68.9-21.7s-27.9-36.6-22.4-61.6c3.7-17,14.8-29.2,28.6-39
			c34.2-24.2,87.2-25.7,121.4-3c18.3,12.1,30.1,28.7,31.9,51.2c2,24.9-8,44.3-28.7,57.8C276.9,489.4,254.5,492.5,234.6,493z"/>
		<path class="st0" d="M291.9,201.7c-0.9,6.2-1.3,14-3.3,21.3c-7.8,29-32.5,42.5-61.1,33.3c-28.3-9.1-44.6-30-53.4-57.3
			c-6.3-19.5-7-39.3-0.5-59.1c12.5-37.9,52.2-48.8,82.3-22.4c19.3,16.9,29.2,39,33.7,63.8C290.8,187.5,291.1,193.9,291.9,201.7z"/>
	</g>
</g>
<rect x="380.8" y="261.1" class="st5" width="43.4" height="3.9"/>
<rect x="459.7" y="259.9" class="st5" width="48.9" height="4.3"/>
</svg>
