<?xml version="1.0" encoding="utf-8"?>
<!-- Generator: Adobe Illustrator 22.1.0, SVG Export Plug-In . SVG Version: 6.00 Build 0)  -->
<svg version="1.1" id="Layer_1" xmlns="http://www.w3.org/2000/svg" xmlns:xlink="http://www.w3.org/1999/xlink" x="0px" y="0px"
	 viewBox="0 0 600 600" style="enable-background:new 0 0 600 600;" xml:space="preserve">
<style type="text/css">
	.st0{fill:#018DC0;}
	.st1{fill:#FCFDFD;}
	.st2{fill:#F9FCFD;}
</style>
<g>
	<g>
		<path class="st0" d="M1,601C1,401,1,201,1,1c200,0,400,0,600,0c0,200,0,400,0,600C401,601,201,601,1,601z M321.4,239.6
			c-0.4-0.1-0.8-0.1-1.3-0.2c-0.1-1.6-0.4-3.1-0.4-4.7c0-7.3-0.1-14.7,0.2-22c0.1-3.6-0.9-5-4.7-4.9c-21.8,0.2-43.7,0.2-65.5,0
			c-4,0-5,1.2-5,5.1c0.1,84.3,0.1,168.6,0,252.9c0,4.6,1.5,5.5,5.7,5.5c21.3-0.2,42.7-0.2,64,0c4.5,0,5.5-1.3,5.5-5.7
			c-0.2-48.7-0.2-97.3-0.1-146c0-18.6,8.5-32.4,27.8-35.7c14-2.4,27.4-1.1,38,9.8c6.9,7,9.1,16.2,9.1,25.7c0.1,48.8,0,97.6,0,146.5
			c0,3-0.2,5.4,4.2,5.4c22.3-0.2,44.7-0.1,67,0c3.1,0,3.9-1.1,3.9-4.1c-0.2-51,0.2-102-0.5-153c-0.3-21.6-3-43.1-11.4-63.5
			c-8.7-21.2-24.1-34.8-46.3-40c-17.2-4-34.6-3.8-52.1-0.8C341.5,213.2,327.1,220.6,321.4,239.6z M132.2,340c0,42,0.1,84-0.1,126
			c0,4.1,1,5.5,5.2,5.4c21.5-0.2,43-0.2,64.5,0c3.9,0,5.5-0.7,5.5-5.2c-0.1-84.5-0.1-169,0-253.5c0-3.7-1-4.9-4.8-4.9
			c-21.8,0.1-43.7,0.2-65.5,0c-4.1,0-5,1.3-4.9,5.2C132.3,255.4,132.2,297.7,132.2,340z M169.6,113.9c-20.5,0-37.3,16.8-37.4,37.4
			c0,20.9,16.6,37.9,37.4,37.9c20.8,0,37.6-16.8,37.6-37.6C207.2,130.6,190.5,113.9,169.6,113.9z"/>
		<path class="st1" d="M321.4,239.6c5.8-19,20.2-26.4,38.2-29.6c17.5-3.1,34.9-3.3,52.1,0.8c22.2,5.2,37.6,18.9,46.3,40
			c8.4,20.4,11.1,41.9,11.4,63.5c0.7,51,0.4,102,0.5,153c0,3-0.8,4.1-3.9,4.1c-22.3-0.1-44.7-0.1-67,0c-4.4,0-4.2-2.4-4.2-5.4
			c0-48.8,0.1-97.6,0-146.5c0-9.6-2.2-18.7-9.1-25.7c-10.6-10.8-24-12.2-38-9.8c-19.4,3.3-27.8,17.1-27.8,35.7
			c-0.1,48.7-0.1,97.3,0.1,146c0,4.3-1,5.7-5.5,5.7c-21.3-0.2-42.7-0.2-64,0c-4.2,0-5.7-0.8-5.7-5.5c0.1-84.3,0.1-168.6,0-252.9
			c0-3.9,1-5.2,5-5.1c21.8,0.2,43.7,0.2,65.5,0c3.8,0,4.8,1.3,4.7,4.9c-0.3,7.3-0.2,14.7-0.2,22c0,1.6,0.3,3.1,0.4,4.7
			C320.5,239.5,320.9,239.5,321.4,239.6z"/>
		<path class="st1" d="M132.2,340c0-42.3,0-84.7-0.1-127c0-3.9,0.8-5.2,4.9-5.2c21.8,0.2,43.7,0.2,65.5,0c3.8,0,4.8,1.2,4.8,4.9
			c-0.1,84.5-0.1,169,0,253.5c0,4.4-1.6,5.2-5.5,5.2c-21.5-0.1-43-0.2-64.5,0c-4.2,0-5.3-1.3-5.2-5.4C132.3,424,132.2,382,132.2,340
			z"/>
		<path class="st2" d="M169.6,113.9c20.9,0,37.6,16.7,37.6,37.6c0,20.8-16.8,37.7-37.6,37.6c-20.7,0-37.4-16.9-37.4-37.9
			C132.3,130.7,149.1,113.9,169.6,113.9z"/>
	</g>
</g>
</svg>
