<?xml version="1.0" encoding="utf-8"?>
<!-- Generator: Adobe Illustrator 22.1.0, SVG Export Plug-In . SVG Version: 6.00 Build 0)  -->
<svg version="1.1" id="Layer_1" xmlns="http://www.w3.org/2000/svg" xmlns:xlink="http://www.w3.org/1999/xlink" x="0px" y="0px"
	 viewBox="0 0 600 600" style="enable-background:new 0 0 600 600;" xml:space="preserve">
<style type="text/css">
	.st0{fill:#676767;}
	.st1{fill:#FEFDFD;}
</style>
<g>
	<g>
		<path class="st0" d="M601,398c0,67.7,0,135.3,0,203c-200,0-400,0-600,0C1,401,1,201,1,1c200,0,400,0,600,0c0,35,0,70,0,105
			c-0.3,2.1-1,4.2-1,6.3c0,93.1,0,186.2,0,279.4C600,393.8,600.7,395.9,601,398z M273.6,400.7c13.1,18.6,31.1,28.4,52.3,31.2
			c36.4,4.9,68.9-5.5,97.2-28.7c20.8-17.1,35.4-38.8,45.2-63.7c14.6-36.9,21.2-75.4,14-114.6c-9.8-53.1-41.9-89.9-90.6-111.8
			c-49-22-99.9-21.7-149.8-4.6C174.6,131.6,132.5,178,122.8,250c-3.8,28.2,0.8,55.9,15.1,81.2c8.6,15.2,20.8,26.8,36.9,33.9
			c9.1,4,13.8,1.7,16.3-7.8c1.6-6.1,2.9-12.3,4.8-18.3c2-6.2,0.6-11.2-3.7-16.1c-7.7-8.6-12.6-18.7-15.3-29.9
			C166,247.3,188,192.6,229.1,165.5c38.3-25.2,80.1-29.3,123.1-15.7c39.7,12.6,61.6,41.3,65.9,82.6c3,29.2-1.4,57.8-10.7,85.6
			c-5.3,15.8-12.7,30.4-23.5,43.2c-10,11.8-22.1,20.7-37.5,24.3c-34.4,8-65.5-18.1-54-55.1c5.9-19.1,11.9-38.2,16.9-57.5
			c2.9-11.4,5.5-23.2,5.4-34.9c-0.3-31.5-30.2-47.6-57.5-31.5c-11.5,6.8-19.2,16.9-24,29.1c-9.6,24.1-8.1,48.2,0.2,72.3
			c0.9,2.8,1.3,6.2,0.6,9c-9.7,41.3-18.8,82.8-29.6,123.9c-10.1,38.3-10.4,76.7-4.9,115.5c0.3,2,2.1,3.7,3.1,5.6
			c1.7-1.1,3.9-1.7,5.1-3.2c4.5-5.6,8.7-11.4,12.8-17.2c18.1-25.9,32-53.7,38.9-84.8C263.4,438.2,268.7,420,273.6,400.7z"/>
		<path class="st1" d="M273.6,400.7c-5,19.3-10.2,37.5-14.3,56c-6.9,31.1-20.8,58.9-38.9,84.8c-4.1,5.9-8.4,11.6-12.8,17.2
			c-1.2,1.5-3.4,2.2-5.1,3.2c-1.1-1.9-2.9-3.6-3.1-5.6c-5.6-38.8-5.2-77.2,4.9-115.5c10.8-41.1,19.9-82.5,29.6-123.9
			c0.7-2.8,0.3-6.2-0.6-9c-8.2-24.1-9.7-48.2-0.2-72.3c4.8-12.2,12.5-22.4,24-29.1c27.2-16,57.2,0,57.5,31.5
			c0.1,11.6-2.4,23.5-5.4,34.9c-4.9,19.3-10.9,38.4-16.9,57.5c-11.5,37,19.6,63.1,54,55.1c15.4-3.6,27.5-12.4,37.5-24.3
			c10.8-12.8,18.2-27.4,23.5-43.2c9.3-27.8,13.7-56.4,10.7-85.6c-4.3-41.3-26.2-70-65.9-82.6c-43-13.6-84.8-9.5-123.1,15.7
			c-41.1,27-63.1,81.7-52.2,127.4c2.7,11.2,7.6,21.3,15.3,29.9c4.3,4.8,5.6,9.8,3.7,16.1c-1.9,6-3.2,12.2-4.8,18.3
			c-2.5,9.5-7.2,11.8-16.3,7.8c-16.1-7.1-28.3-18.6-36.9-33.9c-14.3-25.3-18.9-52.9-15.1-81.2c9.7-72,51.8-118.5,119.1-141.5
			C291.7,91.3,342.6,91,391.6,113c48.7,21.8,80.7,58.6,90.6,111.8c7.3,39.2,0.6,77.7-14,114.6c-9.8,24.9-24.4,46.7-45.2,63.7
			c-28.3,23.2-60.8,33.6-97.2,28.7C304.7,429.1,286.8,419.3,273.6,400.7z"/>
	</g>
</g>
</svg>
