<?xml version="1.0" encoding="utf-8"?>
<!-- Generator: Adobe Illustrator 22.1.0, SVG Export Plug-In . SVG Version: 6.00 Build 0)  -->
<svg version="1.1" id="Layer_1" xmlns="http://www.w3.org/2000/svg" xmlns:xlink="http://www.w3.org/1999/xlink" x="0px" y="0px"
	 viewBox="0 0 600 600" style="enable-background:new 0 0 600 600;" xml:space="preserve">
<style type="text/css">
	.st0{fill:#676767;}
	.st1{fill:#FFFFFF;}
</style>
<rect x="0.4" y="1" class="st0" width="598.6" height="598"/>
<g>
	<g>
		<path class="st1" d="M337.3,97.6c-2.9,2.8-5.7,5.6-8.6,8.4c-0.4,0.3-0.9,0.4-1.3,0.8c-24.6,27.6-34,59.9-29.4,96.4
			c0.3,2,0.9,4,1.6,7.1c-12.3-1.3-23.6-1.8-34.6-4c-16.1-3.2-32.1-6.9-47.7-11.9c-15.7-5.1-31.1-11.5-46.1-18.4
			c-17.5-8.1-33.6-18.8-49.2-30.3c-20.6-15.2-38.9-32.8-55.5-52.2c-3.8-4.4-5-4.4-7.7,0.6c-7.5,14.1-12.4,29.1-13.1,45
			c-0.5,11.5-0.1,23.4,2,34.7c2.6,13.9,8.2,26.9,16.2,38.8c7.3,11,15.7,21.1,26.7,28.6c-1.4,0.7-3,2-4.3,1.8
			c-4.7-0.7-9.5-1.5-14.1-3c-7.3-2.5-14.5-5.6-21.7-8.5c-5.1-2-6.2-1.2-6.2,4.1c0.1,13.6,2.7,26.7,7.7,39.3
			c5.1,12.7,11.5,24.6,21.4,34.3c4.6,4.4,9.1,8.9,13.7,13.3c4.9,3.7,9.5,8,14.8,10.9c8.9,4.8,18.3,8.8,27.3,12.9
			c-14,4.3-28.8,2.3-43.9,1.4c17.4,49,52,76.1,104.2,82.9c-2.7,2.1-4.2,3.5-5.8,4.5c-10.4,6.1-20.5,13-31.5,18.1
			c-13,6-26.5,11.5-40.3,15.4c-13.5,3.8-27.6,6.3-41.6,7.3c-14.6,1-29.5-0.6-44.2-1c-0.9,0-2.1,0.3-2.5,0.9c-0.4,0.7-0.5,2.1,0,2.7
			c0.7,1,2,1.7,3.1,2.4c29.7,17.7,60.8,32.1,94.7,39.5c15.4,3.4,30.9,6.9,46.5,8.4c29,2.7,58.3,2.6,87.1-2.2
			c18.9-3.2,37.5-8.4,55.9-13.9c26.9-8.1,51.8-20.7,74.8-36.7c10.9-7.6,20.9-16.3,31.4-24.5c3.1-2.5,6.4-4.8,9.2-7.5
			c28.4-27.1,51.5-58.2,69-93.3c13.5-27.1,24-55.3,29.8-85.1c3.6-18.6,6.9-37.2,6.7-56.2c-0.1-8.3,0.1-16.6,0.2-24.9
			c11.1-9.7,22.7-19,33.2-29.4c8-7.9,14.6-17.2,21.7-26c0.9-1.1,0.7-3,1-4.5c-1.4-0.1-2.9-0.7-4.1-0.3c-10.5,3.5-20.9,7.5-31.5,10.7
			c-6.7,2-13.7,3-20.6,4.5c-0.5-0.7-1-1.4-1.4-2.1c1-0.3,2.1-0.5,2.9-1c11.7-8.3,21-18.9,28.4-31c4.4-7.2,7.8-15,11.5-22.6
			c0.6-1.2-0.1-3.1-0.3-4.7c-1.2,0.2-2.5,0.3-3.7,0.6c-0.8,0.2-1.5,0.6-2.3,1.1c-18.9,11.1-39.3,18.3-60.5,23.7
			c-4.6,1.2-8.3,0.9-11.5-3.1c-2.1-2.5-4.9-4.5-7.5-6.6c-15.5-12.4-33.1-21.4-52.6-23.5c-19.7-2.1-40.1-3.4-59.1,4.8
			c-10.4,4.5-20.1,10.8-30,16.2C342.9,93.1,340.1,95.3,337.3,97.6z"/>
	</g>
</g>
</svg>
