<?xml version="1.0" encoding="utf-8"?>
<!-- Generator: Adobe Illustrator 22.1.0, SVG Export Plug-In . SVG Version: 6.00 Build 0)  -->
<svg version="1.1" id="Layer_1" xmlns="http://www.w3.org/2000/svg" xmlns:xlink="http://www.w3.org/1999/xlink" x="0px" y="0px"
	 viewBox="0 0 600 600" style="enable-background:new 0 0 600 600;" xml:space="preserve">
<style type="text/css">
	.st0{fill:#EB0100;}
	.st1{fill:#FDFDFD;}
	.st2{fill:#EB0403;}
	.st3{fill:#F5E4DC;}
</style>
<g>
	<g>
		<path class="st0" d="M300.5,601c-98.5,0-197,0-295.5,0.1c-3.4,0-4.1-0.7-4.1-4.1C1,399.7,1,202.3,0.9,5c0-3.4,0.7-4.1,4.1-4.1
			C202.3,1,399.7,1,597,0.9c3.4,0,4.1,0.7,4.1,4.1c-0.1,197.3-0.1,394.7,0,592c0,3.4-0.7,4.1-4.1,4.1C498.2,601,399.3,601,300.5,601
			z M299,426.1c28.5-0.7,54.9-1.1,81.4-2.1c16.6-0.6,33.3-1.3,49.8-3.2c16-1.9,27.6-10.8,34-25.9c4.7-11.2,6.7-23,7.6-35
			c2.8-39.1,2.9-78.2,0-117.3c-0.8-11.5-2.7-22.8-6.8-33.6c-5-13-13.8-22.3-27.2-25.7c-10.1-2.5-20.7-3.7-31.1-3.9
			c-43.3-1.1-86.6-2.3-129.9-2.2c-32.1,0.1-64.3,1.6-96.4,3.3c-25.3,1.3-38.5,12.6-45.4,36.8c-4.7,16.5-5.5,33.6-5.7,50.5
			c-0.4,27.6,0.1,55.3,0.9,82.9c0.4,13.8,2,27.5,6.7,40.7c5.2,14.7,14.9,24.3,30,27.8c8.4,1.9,17.1,3.3,25.7,3.6
			C228.7,424.1,264.8,425,299,426.1z"/>
		<path class="st1" d="M299,426.1c-34.2-1-70.3-2-106.4-3.4c-8.6-0.3-17.3-1.7-25.7-3.6c-15.1-3.5-24.9-13.1-30-27.8
			c-4.6-13.2-6.3-27-6.7-40.7c-0.8-27.6-1.4-55.3-0.9-82.9c0.3-16.9,1-34,5.7-50.5c6.9-24.2,20.1-35.5,45.4-36.8
			c32.1-1.7,64.2-3.2,96.4-3.3c43.3-0.1,86.6,1.1,129.9,2.2c10.4,0.3,21,1.4,31.1,3.9C451.1,186.6,460,196,465,209
			c4.2,10.8,6,22.1,6.8,33.6c2.8,39.1,2.8,78.2,0,117.3c-0.9,12-2.8,23.8-7.6,35c-6.4,15.1-18,24-34,25.9
			c-16.5,1.9-33.2,2.6-49.8,3.2C353.9,424.9,327.5,425.4,299,426.1z M287.8,262.3c-0.7-0.4-1.4-0.8-2.1-1.2c-0.3,0.1-0.6,0-0.8-0.3
			c-0.4-3.3-2.4-3.7-5.1-2.7c-1.1-0.6-2.1-1.1-3.2-1.7c0.2-5.1-3.6-2.9-6-3.3c-0.3,0-0.6-0.1-0.8-0.3c-0.8-1.1-1.7-2.2-2.5-3.3
			c-0.6,1.2-1.2,2.4-1.7,3.5c0,0.7,0,1.3,0,2c-0.1,0.1-0.3,0.2-0.3,0.3c0.1,0.3,0.2,0.5,0.3,0.7c0,27.3,0,54.7,0,82c0,1,0,2,0,3
			c0,1,0,2,0,3c0,1.7,0,3.3,0,5c0.7,0.4,1.5,0.8,2.2,1.2c0.4,0.4,0.7,0.8,1.1,1.2c0.3-0.8,0.6-1.6,0.9-2.4
			c12.4-6.7,24.8-13.5,37.2-20.2c15.9-8.6,31.9-17.1,47.9-25.7c1.1-0.6,2-1.5,3-2.3c-1-0.8-2-1.6-3.1-2.3c-1.9-1.1-3.8-2-5.7-3.1
			c-5.3-2.8-10.5-5.7-15.8-8.5c-5.3-2.8-10.3-6.2-15.9-8.2c-5.3-1.9-8.2-7.1-14.3-8.2c-4.7-0.8-8.8-4.5-13.2-7
			C289.3,263.1,288.5,262.7,287.8,262.3L287.8,262.3z"/>
		<path class="st2" d="M265.9,344c0-1,0-2,0-3c0-1,0-2,0-3c0-27.3,0-54.7,0-82c0-0.3,0-0.7,0-1c0-0.7,0-1.3,0-2
			c1.4-0.1,2.8-0.2,4.2-0.3c0.2,0.3,0.5,0.4,0.8,0.3c2,1.1,4,2.2,6,3.3c1.1,0.6,2.1,1.1,3.2,1.7c1.7,0.9,3.4,1.8,5.1,2.7
			c0.2,0.3,0.4,0.4,0.8,0.3c0.7,0.4,1.4,0.8,2.1,1.2l-0.1,0c0.8,0.4,1.5,0.9,2.3,1.3c4.4,2.4,8.5,6.2,13.2,7c6.1,1.1,9,6.3,14.3,8.2
			c5.6,2,10.6,5.4,15.9,8.2c5.3,2.8,10.5,5.7,15.8,8.5c1.9,1,3.8,2,5.7,3.1c1.1,0.6,2.1,1.5,3.1,2.3c-1,0.8-1.9,1.7-3,2.3
			c-15.9,8.6-31.9,17.1-47.9,25.7c-12.4,6.7-24.8,13.4-37.2,20.2c-0.7,0.4-1.3,0.8-2,1.2c-0.7-0.4-1.5-0.8-2.2-1.2
			C265.9,347.3,265.9,345.7,265.9,344z"/>
		<path class="st3" d="M276.8,256.4c-2-1.1-4-2.2-6-3.3C273.2,253.5,277,251.3,276.8,256.4z"/>
		<path class="st3" d="M270,252.7c-1.4,0.1-2.8,0.2-4.2,0.3c0.6-1.2,1.2-2.4,1.7-3.5C268.4,250.6,269.2,251.6,270,252.7z"/>
		<path class="st3" d="M285,260.8c-1.7-0.9-3.4-1.8-5.1-2.7C282.7,257.1,284.6,257.5,285,260.8z"/>
		<path class="st3" d="M268,350.2c0.7-0.4,1.3-0.8,2-1.2c-0.3,0.8-0.6,1.6-0.9,2.4C268.7,351,268.4,350.6,268,350.2z"/>
		<path class="st3" d="M265.9,344c0,1.7,0,3.3,0,5C265.9,347.3,265.9,345.7,265.9,344z"/>
		<path class="st3" d="M290.1,263.5c-0.8-0.4-1.5-0.9-2.3-1.3C288.5,262.7,289.3,263.1,290.1,263.5z"/>
		<path class="st3" d="M265.8,338c0,1,0,2,0,3C265.8,340,265.8,339,265.8,338z"/>
		<path class="st3" d="M287.8,262.3c-0.7-0.4-1.4-0.8-2.1-1.2C286.5,261.5,287.2,261.9,287.8,262.3z"/>
		<path class="st3" d="M265.9,255c0,0.3,0,0.7,0,1c-0.1-0.2-0.3-0.5-0.3-0.7C265.5,255.2,265.7,255.1,265.9,255z"/>
	</g>
</g>
</svg>
