<?xml version="1.0" encoding="utf-8"?>
<!-- Generator: Adobe Illustrator 22.1.0, SVG Export Plug-In . SVG Version: 6.00 Build 0)  -->
<svg version="1.1" id="Layer_1" xmlns="http://www.w3.org/2000/svg" xmlns:xlink="http://www.w3.org/1999/xlink" x="0px" y="0px"
	 viewBox="0 0 600 600" style="enable-background:new 0 0 600 600;" xml:space="preserve">
<style type="text/css">
	.st0{fill:#FFFFFF;}
</style>
<g>
	<g>
		<path d="M321,601c-106.6,0-213.3,0-320,0C1,401.1,1,201.1,1,1.1c199.9,0,399.7,0,599.8,0c0,199.9,0,399.9,0,599.9
			c-62.2,0-124.5,0-186.8,0c0-1.7,0.1-3.3,0.1-5c0-73.5,0-147,0-220.4c0-2.1,0-4.2,0-6.8c26.4,0,52.2,0,78.2,0
			c3.9-30,7.7-59.5,11.6-89.7c-30.1,0-59.7,0-89.3,0c-0.2-1.2-0.4-1.8-0.4-2.5c0.2-22-0.1-44,0.7-65.9c0.7-20.3,13.1-32.8,33.3-33.8
			c17.8-0.9,35.6-0.8,53.4-1.1c1.7,0,3.5,0,5.5,0c0-25.5-0.1-50.1,0.1-74.8c0-4.5-1.6-5.6-5.7-5.8c-12.3-0.5-24.6-1.5-36.9-2.2
			c-18.6-1-37.2-1.5-55.7,2.1c-55.1,10.9-83.2,51.6-86.4,101.9c-1.6,25.2-0.7,50.6-1,75.9c0,1.9-0.2,3.9-0.3,6.4
			c-26.2,0-51.9,0-77.5,0c0,30.1,0,59.7,0,89.6c26,0,51.6,0,77.6,0c0.1,2,0.2,3.6,0.2,5.2c0,73.6,0,147.3,0,220.9
			C321.5,597,321.2,599,321,601z"/>
		<path class="st0" d="M321,601c0.2-2,0.5-4,0.5-5.9c0-73.6,0-147.3,0-220.9c0-1.6-0.1-3.3-0.2-5.2c-26,0-51.6,0-77.6,0
			c0-29.9,0-59.4,0-89.6c25.6,0,51.4,0,77.5,0c0.1-2.5,0.3-4.4,0.3-6.4c0.3-25.3-0.6-50.7,1-75.9c3.2-50.3,31.3-91,86.4-101.9
			c18.5-3.6,37.1-3.2,55.7-2.1c12.3,0.7,24.6,1.6,36.9,2.2c4.1,0.2,5.8,1.3,5.7,5.8c-0.2,24.6-0.1,49.3-0.1,74.8c-2,0-3.8,0-5.5,0
			c-17.8,0.3-35.6,0.2-53.4,1.1c-20.2,1-32.6,13.4-33.3,33.8c-0.8,22-0.5,44-0.7,65.9c0,0.6,0.2,1.3,0.4,2.5c29.6,0,59.2,0,89.3,0
			c-3.9,30.2-7.7,59.7-11.6,89.7c-26,0-51.8,0-78.2,0c0,2.6,0,4.7,0,6.8c0,73.5,0,147,0,220.4c0,1.7-0.1,3.3-0.1,5
			C383,601,352,601,321,601z"/>
	</g>
</g>
</svg>
