<?xml version="1.0" encoding="utf-8"?>
<!-- Generator: Adobe Illustrator 22.1.0, SVG Export Plug-In . SVG Version: 6.00 Build 0)  -->
<svg version="1.1" id="Layer_1" xmlns="http://www.w3.org/2000/svg" xmlns:xlink="http://www.w3.org/1999/xlink" x="0px" y="0px"
	 viewBox="0 0 600 600" style="enable-background:new 0 0 600 600;" xml:space="preserve">
<style type="text/css">
	.st0{fill:#FFFFFF;}
</style>
<g>
	<g>
		<path d="M1,601C1,401,1,201,1,1c200,0,400,0,600,0c0,200,0,400,0,600C401,601,201,601,1,601z M241.9,336.7
			c-1.7,0.4-2.6,0.8-3.5,0.8c-8.3,0.4-16.6,0.7-24.9,1.3c-24.9,1.7-49.1,6.3-71.6,17.7c-21.5,10.9-37.4,26.9-44.3,50.7
			c-9.9,34.3,0.4,62.9,29.8,83.1c21.6,14.9,46.1,21.6,71.7,24.8c23.1,2.9,46.2,2.6,69.1-1.3c27.4-4.6,52.6-13.9,73.4-33.1
			c30.4-28.1,34.8-68.8,18.7-102.4c-7.5-15.6-19.8-27.4-32.9-38.3c-12.3-10.2-25-19.8-36.8-30.6c-15.1-13.8-15.6-26.7-2.1-42.2
			c4.7-5.4,10.3-10,15.8-14.4c14.4-11.6,26.1-25,32.5-42.7c5.1-13.9,5.3-28,2.9-42.3c-3.4-20.9-12.4-38.8-29.9-51.7
			c-1-0.8-1.9-1.8-3.8-3.7c10.6,0,19.7,0.2,28.8-0.1c2.2-0.1,4.8-1.1,6.4-2.6c6.8-6.4,13.3-13.1,19.9-19.7c1.4-1.4,2.7-2.9,4.7-5.1
			c-3,0-4.8,0-6.6,0c-39.7,0-79.3,0-119,0c-20.6,0-40.8,3-59.8,11.3c-16.6,7.2-30.6,17.9-41.1,32.9c-10.7,15.3-16.2,32.4-16.7,50.9
			c-0.8,25.9,5.9,49.4,24.3,68.6c17.3,18,39.3,26,63.5,29c6.4,0.8,12.8,1.1,20.1,1.7C220.9,301.1,223,320.4,241.9,336.7z
			 M458.3,264.1c0-16,0-31.6,0-47.2c-10,0-19.4,0-29.3,0c0,11.8,0,23.3,0,34.8c0,12.5,0,12.5-12.4,12.5c-11.6,0-23.2,0-34.8,0
			c0,10,0,19.3,0,29.1c14.4,0,28.3,0.2,42.3-0.1c4.1-0.1,5.1,1.3,5,5.1c-0.3,8-0.1,16-0.1,24c0,6.8,0,13.5,0,20.5
			c10,0,19.4,0,29.3,0c0-2.2,0-4,0-5.8c0-13.2,0.1-26.3-0.1-39.5c0-3.3,1-4.4,4.3-4.3c8.3,0.2,16.7,0,25,0c6.6,0,13.2,0,20.1,0
			c0-9.9,0-19.3,0-29.1C491.1,264.1,475,264.1,458.3,264.1z"/>
		<path class="st0" d="M241.9,336.7c-18.9-16.3-21-35.7-11.2-57.3c-7.2-0.6-13.7-0.9-20.1-1.7c-24.2-3-46.2-11-63.5-29
			c-18.4-19.1-25.1-42.7-24.3-68.6c0.6-18.5,6-35.6,16.7-50.9c10.5-15,24.5-25.7,41.1-32.9c19-8.3,39.1-11.3,59.8-11.3
			c39.7,0,79.3,0,119,0c1.8,0,3.6,0,6.6,0c-2,2.1-3.3,3.6-4.7,5.1c-6.6,6.6-13.1,13.3-19.9,19.7c-1.6,1.5-4.2,2.6-6.4,2.6
			c-9.1,0.3-18.2,0.1-28.8,0.1c1.9,1.9,2.7,3,3.8,3.7c17.5,12.9,26.5,30.8,29.9,51.7c2.3,14.3,2.1,28.4-2.9,42.3
			c-6.4,17.6-18.1,31.1-32.5,42.7c-5.6,4.5-11.2,9.1-15.8,14.4c-13.4,15.5-13,28.4,2.1,42.2c11.7,10.7,24.5,20.4,36.8,30.6
			c13.2,10.9,25.4,22.7,32.9,38.3c16.1,33.6,11.7,74.3-18.7,102.4c-20.7,19.2-46,28.5-73.4,33.1c-23,3.9-46,4.2-69.1,1.3
			c-25.6-3.2-50.1-10-71.7-24.8c-29.4-20.3-39.7-48.9-29.8-83.1c6.8-23.7,22.8-39.8,44.3-50.7c22.5-11.4,46.7-16,71.6-17.7
			c8.3-0.6,16.6-0.8,24.9-1.3C239.3,337.5,240.2,337.2,241.9,336.7z M244.4,351.9c-36.6-0.1-61.7,8-82.9,27.1
			c-23,20.8-27,53.2-9.5,78.6c13.8,20,33.7,30.7,57.2,34.7c23.2,3.9,46.1,2,68.4-5.3c17.4-5.7,32.1-15.5,41.1-32
			c14.5-26.7,8.2-59.1-15.1-79.7C284.2,358.3,261.1,352,244.4,351.9z M292,202.5c0.1-18.4-3.8-36-11.9-52.5
			c-8.6-17.5-20.4-32.3-38.5-41c-19.7-9.5-41.8-5.3-56.4,10.8c-11.4,12.6-15.7,28-16.5,44.4c-1,19.1,2.8,37.5,12.3,54.2
			c13.6,24.1,32.7,40.7,61.7,42.2c16,0.9,29.3-4.9,38.7-18.3C289.8,230.4,291.9,216.7,292,202.5z"/>
		<path class="st0" d="M458.3,264.1c16.7,0,32.8,0,49.3,0c0,9.8,0,19.2,0,29.1c-6.9,0-13.5,0-20.1,0c-8.3,0-16.7,0.1-25,0
			c-3.3-0.1-4.3,1.1-4.3,4.3c0.1,13.2,0.1,26.3,0.1,39.5c0,1.8,0,3.6,0,5.8c-9.8,0-19.2,0-29.3,0c0-6.9,0-13.7,0-20.5
			c0-8-0.2-16,0.1-24c0.1-3.9-0.9-5.2-5-5.1c-14,0.2-28,0.1-42.3,0.1c0-9.7,0-19.1,0-29.1c11.6,0,23.2,0,34.8,0
			c12.4,0,12.4,0,12.4-12.5c0-11.5,0-22.9,0-34.8c9.9,0,19.3,0,29.3,0C458.3,232.5,458.3,248.1,458.3,264.1z"/>
		<path d="M244.4,351.9c16.8,0,39.8,6.3,59.2,23.4c23.3,20.5,29.6,53,15.1,79.7c-9,16.5-23.7,26.3-41.1,32
			c-22.3,7.4-45.3,9.3-68.4,5.3c-23.5-4-43.3-14.7-57.2-34.7c-17.6-25.4-13.5-57.8,9.5-78.6C182.6,359.9,207.7,351.8,244.4,351.9z"
			/>
		<path d="M292,202.5c-0.1,14.2-2.2,27.8-10.7,39.8c-9.5,13.4-22.8,19.2-38.7,18.3c-28.9-1.5-48.1-18.1-61.7-42.2
			c-9.4-16.7-13.3-35.1-12.3-54.2c0.9-16.4,5.2-31.8,16.5-44.4c14.6-16.2,36.7-20.4,56.4-10.8c18.1,8.8,29.9,23.5,38.5,41
			C288.2,166.5,292.1,184.1,292,202.5z"/>
	</g>
</g>
</svg>
