<?xml version="1.0" encoding="utf-8"?>
<!-- Generator: Adobe Illustrator 22.1.0, SVG Export Plug-In . SVG Version: 6.00 Build 0)  -->
<svg version="1.1" id="Layer_1" xmlns="http://www.w3.org/2000/svg" xmlns:xlink="http://www.w3.org/1999/xlink" x="0px" y="0px"
	 viewBox="0 0 600 600" style="enable-background:new 0 0 600 600;" xml:space="preserve">
<style type="text/css">
	.st0{fill:#FFFFFF;}
</style>
<g>
	<g>
		<path d="M1,601C1,401,1,201,1,1c200,0,400,0,600,0c0,200,0,400,0,600C401,601,201,601,1,601z M245.5,208.7c0,87.4,0,174.5,0,261.8
			c24.7,0,49,0,73.8,0c0-2,0-3.7,0-5.3c0-49-0.1-98,0.1-147c0-9.7,2.9-18.6,9.8-25.9c10.5-10.9,33.3-12.4,46.9-6.2
			c13.6,6.2,19,17.8,19.1,31.8c0.3,49.5,0.1,99,0.1,148.5c0,1.3,0.1,2.5,0.2,4c24.7,0,49.1,0,73.8,0c0-1.9,0-3.4,0-4.9
			c0-33.3,0.1-66.7,0-100c-0.1-20.8-0.2-41.6-1.2-62.4c-0.8-17.8-3.7-35.3-10.5-52c-8.7-21.4-24.2-35.1-46.7-40.1
			c-20.9-4.7-42-4.2-62.6,2.2c-10.7,3.3-19.3,9.6-23.9,20.3c-1.1,2.4-2,4.9-3,7.4c-0.5-0.1-1-0.1-1.5-0.2c0-10.6,0-21.2,0-32.1
			C294.4,208.7,270,208.7,245.5,208.7z M132.8,208.7c0,1.7,0,3,0,4.4c0,84.3,0,168.6-0.1,252.9c0,3.9,1,5.1,5,5.1
			c21.3-0.2,42.7-0.1,64-0.1c1.6,0,3.2-0.2,4.9-0.4c0-87.5,0-174.5,0-261.9C182,208.7,157.8,208.7,132.8,208.7z M132.8,151.1
			c0,20.7,16.6,37.5,37.1,37.5c19.9,0,36.7-16.8,36.8-36.8c0.1-20.3-16.5-37.3-36.7-37.4C149.7,114.2,132.8,130.9,132.8,151.1z"/>
		<path class="st0" d="M245.5,208.7c24.5,0,48.9,0,74.3,0c0,10.9,0,21.5,0,32.1c0.5,0.1,1,0.1,1.5,0.2c1-2.5,2-5,3-7.4
			c4.7-10.7,13.3-17,23.9-20.3c20.6-6.4,41.7-6.9,62.6-2.2c22.4,5,38,18.7,46.7,40.1c6.8,16.7,9.7,34.2,10.5,52
			c1,20.8,1.1,41.6,1.2,62.4c0.2,33.3,0,66.7,0,100c0,1.5,0,3,0,4.9c-24.7,0-49.1,0-73.8,0c-0.1-1.5-0.2-2.8-0.2-4
			c0-49.5,0.1-99-0.1-148.5c-0.1-14-5.5-25.6-19.1-31.8c-13.6-6.2-36.4-4.8-46.9,6.2c-7,7.3-9.8,16.2-9.8,25.9
			c-0.1,49-0.1,98-0.1,147c0,1.6,0,3.3,0,5.3c-24.8,0-49.1,0-73.8,0C245.5,383.2,245.5,296.2,245.5,208.7z"/>
		<path class="st0" d="M132.8,208.7c25,0,49.3,0,73.8,0c0,87.4,0,174.4,0,261.9c-1.7,0.1-3.3,0.4-4.9,0.4c-21.3,0-42.7-0.1-64,0.1
			c-4,0-5-1.2-5-5.1c0.1-84.3,0.1-168.6,0.1-252.9C132.8,211.7,132.8,210.4,132.8,208.7z"/>
		<path class="st0" d="M132.8,151.1c0-20.2,17-36.9,37.3-36.8c20.2,0.1,36.8,17.1,36.7,37.4c-0.1,20-16.9,36.8-36.8,36.8
			C149.4,188.7,132.7,171.9,132.8,151.1z"/>
	</g>
</g>
</svg>
