<?xml version="1.0" encoding="utf-8"?>
<!-- Generator: Adobe Illustrator 22.1.0, SVG Export Plug-In . SVG Version: 6.00 Build 0)  -->
<svg version="1.1" id="Layer_1" xmlns="http://www.w3.org/2000/svg" xmlns:xlink="http://www.w3.org/1999/xlink" x="0px" y="0px"
	 viewBox="0 0 600 600" style="enable-background:new 0 0 600 600;" xml:space="preserve">
<style type="text/css">
	.st0{fill:#FFFFFF;}
</style>
<g>
	<g>
		<path d="M1,601C1,401,1,201,1,1c200,0,400,0,600,0c0,200,0,400,0,600C401,601,201,601,1,601z M273,400.3c0.6-0.2,1.1-0.5,1.7-0.7
			c0.2,0.6,0.4,1.4,0.7,1.9c7.9,12.5,19.7,20.1,33.2,25.1c28.3,10.7,55.9,6.7,82.8-4.8c34-14.5,56.7-40.5,72.2-73.3
			c13.7-28.8,19.5-59.4,20.6-91.1c0.8-23.2-3.1-45.4-13-66.3c-20.9-44.1-55.9-71.9-102.2-85.7c-35.6-10.6-71.6-10.1-107.5-1.9
			c-49.1,11.2-88.9,36.7-115.4,80.3c-25.8,42.5-31.5,87.7-13.6,134.7c8.2,21.5,22.7,37.8,44.4,46.8c6.6,2.8,10.9,0.6,12.9-6.3
			c1.9-6.7,3.4-13.5,5.4-20.2c1.8-5.8,0.7-10.6-3.3-15.2c-6.7-7.6-11.5-16.2-14.4-25.9c-4.8-16.2-4.8-32.5-1.9-48.9
			c6.4-36.9,24.7-66.2,56.6-86c38.2-23.7,79.6-26.9,121.7-13.1c37.9,12.5,59.3,40.1,64.5,79.7c2.5,18.6,0.9,37.2-2.1,55.7
			c-4.4,26.3-12.4,51.3-28.9,72.8c-13.1,17.1-29.4,28.6-51.8,29.6c-31.5,1.3-52.5-24.2-44.3-54.7c4.6-17.1,10-34,15-51
			c4-13.7,8.1-27.4,8-41.9c-0.3-27.5-20.2-44-45.7-37.3c-16.7,4.3-27.3,16.1-34,31.4c-10.5,24.1-9.2,48.5-1,72.9
			c0.9,2.7,2,5.9,1.4,8.6c-9.6,41-18.6,82.1-29.4,122.8c-10.3,38.8-11.4,77.7-5.7,117.2c0.3,2.1,1.7,4,2.6,6c1.8-1.3,4-2.2,5.3-3.9
			c25.7-32.5,44.6-68.2,53.1-109.1C264.2,432.2,268.9,416.3,273,400.3z"/>
		<path class="st0" d="M273,400.3c-4.1,16-8.9,31.9-12.2,48.1c-8.5,40.9-27.4,76.7-53.1,109.1c-1.3,1.6-3.5,2.6-5.3,3.9
			c-0.9-2-2.3-3.9-2.6-6c-5.7-39.4-4.6-78.3,5.7-117.2c10.8-40.6,19.8-81.8,29.4-122.8c0.6-2.6-0.5-5.8-1.4-8.6
			c-8.3-24.4-9.5-48.9,1-72.9c6.7-15.3,17.3-27,34-31.4c25.5-6.6,45.5,9.9,45.7,37.3c0.1,14.5-4,28.2-8,41.9
			c-4.9,17-10.4,33.9-15,51c-8.2,30.5,12.8,56.1,44.3,54.7c22.4-0.9,38.8-12.5,51.8-29.6c16.5-21.5,24.5-46.5,28.9-72.8
			c3.1-18.4,4.6-37.1,2.1-55.7c-5.2-39.6-26.6-67.2-64.5-79.7c-42.1-13.9-83.5-10.6-121.7,13.1c-31.9,19.8-50.2,49.1-56.6,86
			c-2.8,16.4-2.9,32.7,1.9,48.9c2.9,9.7,7.7,18.4,14.4,25.9c4,4.6,5.1,9.3,3.3,15.2c-2.1,6.6-3.5,13.5-5.4,20.2
			c-2,6.9-6.3,9.1-12.9,6.3c-21.7-9-36.2-25.2-44.4-46.8c-17.9-47-12.2-92.1,13.6-134.7c26.5-43.6,66.3-69.1,115.4-80.3
			c35.9-8.2,71.9-8.8,107.5,1.9c46.3,13.8,81.3,41.6,102.2,85.7c9.9,20.9,13.8,43.2,13,66.3c-1.1,31.7-6.9,62.3-20.6,91.1
			c-15.5,32.8-38.2,58.9-72.2,73.3c-26.9,11.4-54.6,15.4-82.8,4.8c-13.5-5.1-25.3-12.6-33.2-25.1c-0.4-0.6-0.5-1.3-0.7-1.9
			C274.1,399.8,273.6,400.1,273,400.3z"/>
	</g>
</g>
</svg>
