<?xml version="1.0" encoding="utf-8"?>
<!-- Generator: Adobe Illustrator 22.1.0, SVG Export Plug-In . SVG Version: 6.00 Build 0)  -->
<svg version="1.1" id="Layer_1" xmlns="http://www.w3.org/2000/svg" xmlns:xlink="http://www.w3.org/1999/xlink" x="0px" y="0px"
	 viewBox="0 0 600 600" style="enable-background:new 0 0 600 600;" xml:space="preserve">
<style type="text/css">
	.st0{fill:#FFFFFF;}
</style>
<g>
	<g>
		<path d="M1,601C1,401,1,201,1,1c200,0,400,0,600,0c0,200,0,400,0,600C401,601,201,601,1,601z M27.3,484.1
			c-0.3,0.6-0.6,1.1-0.9,1.7c0.8,0.3,1.7,0.4,2.4,0.8c26.2,15.5,53.6,28.1,82.9,36.4c39,11.1,78.8,14.5,119.2,11.4
			c34.3-2.6,67.4-10.1,99.3-23c42.7-17.3,79.7-42.8,110.8-76.6c50.5-54.8,79.9-119.6,88.7-193.6c1.7-14.5,1.8-29.2,2-43.8
			c0.1-4.3,1-6.9,4.2-9.8c12.6-11.4,25.1-22.9,37-34.9c5.9-5.9,10.4-13.1,15.5-19.7c-0.3-0.4-0.6-0.7-0.9-1.1
			c-19.3,8.3-39.2,14-60.5,15.9c21.9-15.8,37.7-35.7,46.6-62c-2.1,0.9-3.3,1.2-4.4,1.8c-20.1,11.8-41.7,19.8-64.5,24.5
			c-2.1,0.4-5.5-0.3-6.9-1.8c-35.2-35.7-92.5-43.4-135.8-20.5c-29.2,15.5-48.6,39.3-57.6,71.3c-4.8,16.9-5.8,34-2.5,51.4
			c1.1,6,0.2,7.1-5.2,6.2c-18.2-2.8-36.6-5.2-54.6-8.8c-24.7-5-48.2-14.2-70.6-25.7c-40.5-20.6-75.7-48.3-104.8-83.3
			c-2-2.4-3.2-2.6-4.7,0.3c-14.2,27.7-17.6,56.7-9.1,86.7c7,24.8,20.8,45.1,41.6,60.6c0.9,0.7,1.2,2.3,2.1,4
			c-17.9-1.1-33.6-6.1-49-13.3c3.3,58.6,33,96.3,88.8,114.2c-15.6,5.1-31.3,3.9-48.5,2.4c19.3,49.2,54.6,75.3,106.4,80.7
			C144.7,474.4,89.1,489.7,27.3,484.1z"/>
		<path class="st0" d="M27.3,484.1c61.8,5.7,117.4-9.7,166.8-47.6c-51.7-5.3-87.1-31.4-106.4-80.7c17.1,1.5,32.8,2.7,48.5-2.4
			c-55.8-17.9-85.5-55.7-88.8-114.2c15.4,7.2,31,12.2,49,13.3c-0.9-1.7-1.2-3.3-2.1-4c-20.8-15.5-34.6-35.8-41.6-60.6
			c-8.5-30-5.1-58.9,9.1-86.7c1.5-2.9,2.7-2.7,4.7-0.3c29.1,35.1,64.2,62.7,104.8,83.3c22.4,11.4,45.9,20.7,70.6,25.7
			c18.1,3.7,36.4,6,54.6,8.8c5.4,0.8,6.3-0.2,5.2-6.2c-3.3-17.4-2.3-34.5,2.5-51.4c9.1-31.9,28.4-55.8,57.6-71.3
			c43.3-22.9,100.6-15.3,135.8,20.5c1.5,1.5,4.8,2.2,6.9,1.8c22.8-4.6,44.4-12.7,64.5-24.5c1.1-0.6,2.3-1,4.4-1.8
			c-9,26.2-24.7,46.2-46.6,62c21.3-1.8,41.2-7.6,60.5-15.9c0.3,0.4,0.6,0.7,0.9,1.1c-5.1,6.6-9.7,13.8-15.5,19.7
			c-11.9,12-24.4,23.5-37,34.9c-3.2,2.9-4.1,5.5-4.2,9.8c-0.2,14.6-0.3,29.3-2,43.8c-8.7,74-38.2,138.7-88.7,193.6
			c-31.1,33.8-68.1,59.3-110.8,76.6c-31.9,12.9-65,20.4-99.3,23c-40.4,3.1-80.2-0.3-119.2-11.4c-29.3-8.3-56.7-20.9-82.9-36.4
			c-0.7-0.4-1.6-0.5-2.4-0.8C26.7,485.2,27,484.6,27.3,484.1z"/>
	</g>
</g>
</svg>
