<?xml version="1.0" encoding="utf-8"?>
<!-- Generator: Adobe Illustrator 22.1.0, SVG Export Plug-In . SVG Version: 6.00 Build 0)  -->
<svg version="1.1" id="Layer_1" xmlns="http://www.w3.org/2000/svg" xmlns:xlink="http://www.w3.org/1999/xlink" x="0px" y="0px"
	 viewBox="0 0 600 600" style="enable-background:new 0 0 600 600;" xml:space="preserve">
<style type="text/css">
	.st0{fill:#FFFFFF;}
</style>
<g>
	<g>
		<path d="M1,601C1,401,1,201,1,1c200,0,400,0,600,0c0,200,0,400,0,600C401,601,201,601,1,601z M301.6,176c0,0.4,0,0.8,0,1.2
			c-4.5,0-9-0.1-13.5,0c-36.3,1.2-72.6,2.3-108.8,3.7c-12.6,0.5-23.9,4.6-32.5,14.2c-9.5,10.5-12.6,23.7-14.2,37.1
			c-4.5,36.8-3.7,73.8-2.3,110.8c0.6,15.9,1.7,31.9,6.9,47.3c5.7,16.8,17.1,27.3,34.5,29.2c22.1,2.4,44.5,4.1,66.7,4.4
			c46.5,0.6,92.9,0.3,139.4-0.2c17.3-0.2,34.6-1.4,51.8-3.2c15-1.6,27.1-9.2,33-23.4c4-9.7,6.6-20.3,8-30.7
			c4.3-32.5,2.8-65.2,2.4-97.8c-0.2-17.6-1.1-35.3-6-52.4c-6.3-21.7-18.8-33.4-41-34.7C384.4,178.9,343,177.7,301.6,176z"/>
		<path class="st0" d="M301.6,176c41.4,1.7,82.9,2.9,124.3,5.4c22.2,1.3,34.8,13,41,34.7c4.9,17.1,5.8,34.9,6,52.4
			c0.4,32.6,1.9,65.4-2.4,97.8c-1.4,10.4-4,21-8,30.7c-5.9,14.2-18,21.8-33,23.4c-17.2,1.8-34.5,3-51.8,3.2
			c-46.5,0.5-92.9,0.8-139.4,0.2c-22.3-0.3-44.6-1.9-66.7-4.4c-17.3-1.9-28.8-12.4-34.5-29.2c-5.2-15.4-6.4-31.4-6.9-47.3
			c-1.4-37-2.2-74,2.3-110.8c1.6-13.5,4.8-26.6,14.2-37.1c8.7-9.6,20-13.7,32.5-14.2c36.3-1.4,72.6-2.5,108.8-3.7
			c4.5-0.1,9,0,13.5,0C301.5,176.8,301.5,176.4,301.6,176z M265.8,351.7c31.8-17.1,62.6-33.6,94.7-50.8
			c-32.3-17.3-63.1-33.9-94.7-50.8C265.8,284.4,265.8,317.3,265.8,351.7z"/>
		<path d="M265.8,351.7c0-34.4,0-67.3,0-101.7c31.6,17,62.4,33.5,94.7,50.8C328.4,318.1,297.6,334.6,265.8,351.7z"/>
	</g>
</g>
</svg>
