<?xml version="1.0" encoding="utf-8"?>
<!-- Generator: Adobe Illustrator 22.1.0, SVG Export Plug-In . SVG Version: 6.00 Build 0)  -->
<svg version="1.1" id="Layer_1" xmlns="http://www.w3.org/2000/svg" xmlns:xlink="http://www.w3.org/1999/xlink" x="0px" y="0px"
	 viewBox="0 0 600 600" style="enable-background:new 0 0 600 600;" xml:space="preserve">
<style type="text/css">
	.st0{fill:#FFFFFF;}
	.st1{fill:#01AFEF;}
</style>
<g>
	<g id="XMLID_1_">
		<g>
			<path class="st0" d="M1164.8,101.2c0,3.7,0,7.4,0,11.6c-6.2,0-12.3,0-18.9,0c0,17.8,0,35.2,0,53c-5.3,0-9.8,0-14.7,0
				c0-17.6,0-35,0-52.8c-6.6,0-12.7,0-19.2,0c0-4.1,0-7.8,0-11.9C1129.4,101.2,1147,101.2,1164.8,101.2z"/>
			<path class="st0" d="M1242.7,100.8c0,21.8,0,43.2,0,64.9c-4.2,0-8.2,0-12.8,0c0-14.6,0-29.1,0-43.6c-0.3-0.1-0.7-0.2-1-0.3
				c-0.6,1.4-1.2,2.8-1.8,4.2c-4.2,12.1-8.6,24.1-12.4,36.3c-1.3,4.2-4,3.5-6.9,3.6c-3,0-5.5,0.4-6.9-3.7
				c-4.3-13.3-9.2-26.3-14.6-39.4c0,14.1,0,28.2,0,42.7c-4.7,0-8.9,0-13.3,0c0-21.5,0-42.9,0-64.8c6,0,11.8-0.2,17.6,0.2
				c1.2,0.1,2.8,1.9,3.3,3.3c4.2,11.8,8.1,23.6,12.2,35.4c0.6,1.7,1.3,3.3,2.3,5.8c4.5-14,8.8-27,12.8-40.2c1.1-3.6,2.7-4.7,6.3-4.5
				C1232.5,101.1,1237.5,100.8,1242.7,100.8z"/>
			<path class="st0" d="M1138.5,239.5c2.2,13.1,1.8,27,0.5,40.3c-1.8,17.6-11.3,25.6-29,27.2c-6.5,0.6-13,0.9-19.5,0.9
				c-74.5,0.1-149,0-223.5,0c-1.9,0-3.9,0-6.3,0c-0.1,21.7,4.9,41.4,17.5,58.6c13.9,19,33,29.8,55.9,33.6
				c25.8,4.3,51.4,3.2,74.9-9.3c9.9-5.2,18.4-13,27.4-19.8c5.7-4.3,10.9-9.5,16.9-13.2c25.4-15.9,59.2-1.7,65,27.6
				c2.9,14.5-1.8,27.7-10.1,39.6c-12.2,17.4-29.5,28.2-48.5,36.5C1019.3,479,977,485.7,933,482.2c-30.4-2.4-59.5-9.4-86.3-24.2
				c-42.9-23.6-69.4-60.1-82.5-106.8c-0.3-1.1-0.6-2.2-1-3.3c-0.1-0.3-0.4-0.5-0.7-0.9c-5.8,26.5-15.1,51.4-30.7,73.6
				c-25.5,36.3-60.4,56.9-104.5,61.5c-26.6,2.8-52.5,0.6-77.1-10.9c-17.5-8.2-31.5-20.5-41.9-36.7c-0.8-1.2-1.6-2.2-3.3-4.5
				c-0.1,3.1-0.3,4.8-0.3,6.5c0,42.8,0.1,85.7-0.1,128.5c0,7-0.5,14.1-2.1,20.8c-4.3,18-15.9,29.1-34,33.4
				c-9.9,2.3-19.8,2.5-29.7,0.4c-22.9-4.8-36.7-21.4-37.7-45.2c-0.1-3.5-0.1-7-0.1-10.5c0-124,0-248,0-372c0-2.2,0-4.3,0-6.5
				c-0.2-0.1-0.5-0.2-0.8-0.3c-0.7,2-1.5,3.9-2.2,5.9c-38.7,109.5-77.2,218.9-116,328.4c-8.2,23.3-18.1,45.8-33.7,65.3
				c-17.2,21.4-39.7,32.8-66.9,35.5c-17.3,1.7-34.3,1.2-50.7-5c-23.7-9-35.1-30.8-28.7-54.4c4.4-16.3,19-27.4,38.1-28.7
				c8.1-0.5,16.3-0.6,24.5-0.8c11.1-0.2,18.9-5.6,24-15.2c0.6-1.2,1.2-2.4,1.8-3.6c3.8-7.7,4.4-15,1.3-23.7
				c-36.9-104.1-73.3-208.3-109.9-312.5c-1.2-3.4-2.4-6.9-3.7-10.8c-28.4,29.8-56.5,59.2-84.8,88.9c1.1,1.6,2,3,3.1,4.5
				c34.2,46,68.4,91.9,102.7,137.9c12.7,17,16.6,35.6,8.5,55.5c-7,17.3-20.2,28.3-39,30.5c-20.5,2.4-38.4-3.9-50.8-21.3
				c-31.1-43.5-61.9-87.2-92.8-130.8c-2.3-3.2-4.7-6.5-7.2-10c-11.7,10.4-23.3,20.4-34.6,30.8c-1.3,1.2-1.6,3.9-1.6,5.9
				c-0.2,26,0.2,52-0.3,78c-0.6,29.1-19.4,47.3-48.6,47.7c-6.1,0.1-12.4-0.2-18.4-1.5c-21.8-4.8-35.3-21.5-36-44.4
				c-0.4-13.6-0.1-27.3-0.1-42c-0.9,1.2-1.4,1.6-1.6,2.1c-11.5,32.3-35,53.3-65.1,67.5c-34.8,16.3-71.7,20.5-109.7,17.8
				c-29.4-2.1-58-7.9-85.2-19.6c-19.6-8.5-37.7-19.3-51.3-36.2c-10.4-13-16-27.6-13.3-44.5c4.7-29.5,33.9-44.4,60.4-30.3
				c7.8,4.2,14.4,10.7,21.1,16.6c8.3,7.2,15.5,15.8,24.2,22.3c30.7,22.9,64.3,26.1,99.6,12.2c9.4-3.7,16.6-10.4,20.2-20.3
				c4.9-13.6,0.5-28-12.4-34.3c-11-5.3-22.9-9-34.7-12.1c-30.4-8.1-61.1-15-91.3-23.4c-12.5-3.5-24.8-8.8-36.4-14.8
				c-33.7-17.4-50.2-46.1-51.2-83.6c-1.3-48.8,22.5-84.4,69.4-104.5c30.9-13.2,63.3-17.6,96.7-16.3c31.4,1.2,61.9,6.4,91,18.3
				c15.7,6.4,30.4,14.5,42.2,27c12.6,13.3,17.7,28.7,12.7,46.8c-8.1,29.1-40.7,41.3-65.9,24.4c-6.6-4.4-12.8-9.7-18.5-15.2
				c-21.9-20.8-48.1-27.2-77.4-24.4c-11.5,1.1-22.8,2.7-33,8.7c-11.5,6.7-16.1,18.4-12.4,31.3c2.2,7.7,7.5,13.3,14.6,16.2
				c10.1,4.1,20.6,7.4,31.2,10.2c31.7,8.3,63.7,15.4,95.1,24.5c21,6.1,40.3,16.5,56.7,31.5c9.7,8.9,17.3,19.3,22.4,31.5
				c0.4,0.9,0.8,1.6,1.9,3.8c0-3,0-4.6,0-6.2c0-104.3,0-208.7,0.1-313c0-6.5,0.3-13.1,1.6-19.4c4.4-20.3,19.7-33.9,40.5-35.5
				c8.7-0.6,17.8-0.5,26.2,1.4c20.6,4.6,33.3,20.8,34.7,42.3c0.3,4.1,0.3,8.3,0.3,12.5c0,74.7,0,149.3,0,224c0,1.8,0,3.5,0,6.7
				c2.8-3.1,4.5-5,6.3-6.9c36-40,72-80,108.1-119.9c9.1-10.1,19.7-18.2,33.6-20.2c19.5-2.9,34.6,5.4,46.7,20.1
				c1.3,1.5,2.3,3.2,3.7,5.2c0.7-0.8,1.4-1.5,1.9-2.2c12.7-19.2,30.8-26.3,53-22.9c21.5,3.3,36.4,15.5,42.4,36.6
				c12,41.9,23.4,83.9,35,125.9c10.5,37.8,20.9,75.7,31.3,113.5c0.4,1.4,1,2.6,2.6,4c1.1-3.7,2.2-7.5,3.2-11.2
				c20.3-75.3,40.6-150.6,61.1-225.9c1.7-6.4,4.4-12.6,7.4-18.5c18.5-36.4,66.2-29,82.8-7.4c1.4,1.8,2.8,3.7,4.2,5.5
				c0.3-0.1,0.8,0,0.9-0.2c9.6-19.6,26.8-24,46.4-23c15.2,0.8,28.3,6,36.3,20c5.3,9.3,6.3,19.5,6.6,29.9c0.1,4.8,0,9.6,0,14.4
				c0.5,0.4,0.9,0.7,1.4,1.1c0.2-0.8,0.4-1.5,0.6-2.3c15.6-36.9,45.1-55.4,83.2-61.3c37.7-5.9,73.7-0.1,106.8,19.9
				c34.3,20.7,55.5,51.6,68.1,88.8c3.4,10.1,5.8,20.4,8.5,30.2c3.5-10.1,6.5-21,10.9-31.3c24.6-58,68.7-92.4,129.9-104.8
				c42.6-8.7,85-7.2,125.8,8.9C1090.4,131,1127.5,175,1138.5,239.5z"/>
			<path class="st1" d="M-222.2,322c0,1.6,0,3.2,0,6.2c-1.1-2.1-1.5-2.9-1.9-3.8c-5.1-12.2-12.7-22.6-22.4-31.5
				c-16.4-15.1-35.7-25.5-56.7-31.5c-31.4-9.1-63.5-16.2-95.1-24.5c-10.6-2.8-21.1-6.1-31.2-10.2c-7.1-2.8-12.3-8.4-14.6-16.2
				c-3.7-12.9,0.9-24.5,12.4-31.3c10.2-5.9,21.5-7.6,33-8.7c29.3-2.8,55.5,3.6,77.4,24.4c5.8,5.5,11.9,10.7,18.5,15.2
				c25.2,16.9,57.8,4.7,65.9-24.4c5-18.1-0.1-33.5-12.7-46.8c-11.8-12.5-26.5-20.6-42.2-27c-29.2-11.9-59.7-17.1-91-18.3
				c-33.4-1.3-65.8,3.1-96.7,16.3c-47,20-70.8,55.7-69.4,104.5c1,37.6,17.5,66.2,51.2,83.6c11.6,6,23.9,11.3,36.4,14.8
				c30.3,8.4,61,15.3,91.3,23.4c11.8,3.1,23.7,6.8,34.7,12.1c12.9,6.3,17.3,20.6,12.4,34.3c-3.6,9.9-10.8,16.6-20.2,20.3
				c-35.3,13.9-68.9,10.6-99.6-12.2c-8.8-6.5-16-15.1-24.2-22.3c-6.7-5.9-13.3-12.4-21.1-16.6c-26.5-14.2-55.7,0.8-60.4,30.3
				c-2.7,16.9,2.9,31.5,13.3,44.5c13.6,16.9,31.7,27.8,51.3,36.2c27.2,11.7,55.8,17.5,85.2,19.6c38,2.7,74.9-1.5,109.7-17.8
				c30.2-14.1,53.6-35.1,65.1-67.5c0.2-0.5,0.7-0.9,1.6-2.1c0,14.7-0.3,28.3,0.1,42c0.7,22.9,14.3,39.6,36,44.4
				c5.9,1.3,12.2,1.6,18.4,1.5c29.2-0.4,48-18.6,48.6-47.7c0.6-26,0.2-52,0.3-78c0-2,0.3-4.7,1.6-5.9c11.3-10.3,22.8-20.4,34.6-30.8
				c2.5,3.5,4.9,6.7,7.2,10c30.9,43.6,61.7,87.3,92.8,130.8c12.4,17.4,30.3,23.7,50.8,21.3c18.7-2.2,31.9-13.2,39-30.5
				c8.1-19.9,4.2-38.5-8.5-55.5C64.7,350.8,30.5,304.8-3.8,258.9c-1-1.4-2-2.9-3.1-4.5c28.3-29.7,56.4-59.2,84.8-88.9
				c1.3,3.9,2.5,7.3,3.7,10.8c36.5,104.2,73,208.5,109.9,312.5c3.1,8.7,2.5,16-1.3,23.7c-0.6,1.2-1.1,2.4-1.8,3.6
				c-5.1,9.6-12.9,15-24,15.2c-8.2,0.2-16.3,0.2-24.5,0.8c-19,1.2-33.6,12.4-38.1,28.7c-6.4,23.6,5,45.3,28.7,54.4
				c16.4,6.3,33.4,6.7,50.7,5c27.2-2.7,49.7-14,66.9-35.5c15.7-19.5,25.5-42.1,33.7-65.3c38.8-109.4,77.4-218.9,116-328.4
				c0.7-2,1.5-3.9,2.2-5.9c0.2,0.1,0.5,0.2,0.8,0.3c0,2.2,0,4.3,0,6.5c0,124,0,248,0,372c0,3.5,0,7,0.1,10.5
				c1,23.8,14.8,40.5,37.7,45.2c9.9,2.1,19.9,1.9,29.7-0.4c18.1-4.3,29.7-15.4,34-33.4c1.6-6.7,2-13.9,2.1-20.8
				c0.2-42.8,0.1-85.7,0.1-128.5c0-1.7,0.1-3.5,0.3-6.5c1.6,2.2,2.5,3.3,3.3,4.5c10.4,16.3,24.4,28.5,41.9,36.7
				c24.6,11.5,50.5,13.7,77.1,10.9c44.2-4.6,79-25.2,104.5-61.5c15.6-22.2,24.9-47.1,30.7-73.6c0.3,0.4,0.6,0.6,0.7,0.9
				c0.4,1.1,0.7,2.2,1,3.3c13.1,46.7,39.6,83.2,82.5,106.8c26.8,14.8,55.9,21.8,86.3,24.2c44,3.5,86.3-3.2,126.8-20.9
				c19-8.3,36.3-19.1,48.5-36.5c8.3-11.8,12.9-25.1,10.1-39.6c-5.8-29.2-39.6-43.5-65-27.6c-6,3.8-11.2,8.9-16.9,13.2
				c-9,6.8-17.5,14.6-27.4,19.8c-23.6,12.5-49.1,13.7-74.9,9.3c-22.9-3.8-42-14.6-55.9-33.6c-12.6-17.3-17.6-36.9-17.5-58.6
				c2.4,0,4.4,0,6.3,0c74.5,0,149,0,223.5,0c6.5,0,13-0.3,19.5-0.9c17.7-1.6,27.2-9.5,29-27.2c1.4-13.3,1.8-27.2-0.5-40.3
				c-11-64.5-48.1-108.5-108.6-132.4c-40.8-16.1-83.2-17.6-125.8-8.9C843,110.6,798.8,144.9,774.2,203c-4.4,10.3-7.4,21.2-10.9,31.3
				c-2.7-9.7-5.1-20.1-8.5-30.2c-12.6-37.3-33.9-68.2-68.1-88.8c-33-19.9-69.1-25.8-106.8-19.9c-38,6-67.6,24.4-83.2,61.3
				c-0.3,0.7-0.4,1.5-0.6,2.3c-0.5-0.4-0.9-0.7-1.4-1.1c0-4.8,0.1-9.6,0-14.4c-0.3-10.4-1.3-20.6-6.6-29.9
				c-8-14.1-21.1-19.3-36.3-20c-19.6-0.9-36.9,3.4-46.4,23c-0.1,0.2-0.6,0.1-0.9,0.2c-1.4-1.8-2.8-3.7-4.2-5.5
				c-16.6-21.6-64.4-29-82.8,7.4c-3,5.9-5.6,12.1-7.4,18.5C289.6,212.4,269.3,287.7,249,363c-1,3.8-2.1,7.5-3.2,11.2
				c-1.5-1.3-2.2-2.6-2.6-4c-10.4-37.8-20.9-75.7-31.3-113.5c-11.6-42-23-84.1-35-125.9c-6-21.1-20.9-33.3-42.4-36.6
				c-22.2-3.4-40.4,3.6-53,22.9c-0.5,0.8-1.2,1.4-1.9,2.2c-1.4-1.9-2.4-3.6-3.7-5.2C63.9,99.4,48.8,91.2,29.3,94.1
				c-13.9,2-24.5,10.1-33.6,20.2c-36.1,39.9-72.1,80-108.1,119.9c-1.7,1.9-3.5,3.9-6.3,6.9c0-3.2,0-4.9,0-6.7c0-74.7,0-149.3,0-224
				c0-4.2,0-8.3-0.3-12.5c-1.4-21.5-14.1-37.7-34.7-42.3c-8.4-1.9-17.5-2.1-26.2-1.4c-20.8,1.6-36.2,15.2-40.5,35.5
				c-1.4,6.3-1.6,12.9-1.6,19.4C-222.2,113.4-222.2,217.7-222.2,322z M1288.5,134.8c0.5,49.7-25.3,83.6-70.1,103.8
				c1.3,9.8,2.8,19.8,3.8,29.9c4.8,50.5-2.8,99.2-24.6,145c-41,85.9-108.3,140.3-201.6,159.9c-75.5,15.9-146.6,1.6-211.8-40
				c-3.5-2.2-5.5-2.4-8.9,0.5c-44.5,37.6-95.9,55.7-154.2,54.2c-6.3-0.2-12.6-1-18.9-1.8c-3-0.4-4.6,0-5.5,3.6
				c-14.8,60.5-65.7,106.2-127.5,111.8c-62.8,5.7-110.9-19.7-144.3-73.2c-0.8-1.2-1.5-2.5-2.1-3.6c-30.1,70.8-81.9,111.8-160.3,110
				C89.3,733.1,40.6,692.9,12,626.5c-80.5-0.2-145.4-32.7-194.8-96.2c-11.4,6.6-22.4,13.7-34,19.8c-32.6,17.2-67.3,27.5-104,31.2
				c-69.6,6.9-134-8.3-191.9-47.3c-70-47.1-112.2-112.9-126.4-196.2c-3.7-21.6-5-43.4-3-65.2c0.5-5.9-1.4-9.6-5.4-13.9
				c-39.2-41.8-52.4-90.9-35.6-145.7c16.8-55,55.2-88.9,111.3-101.3c32.7-7.2,64.6-2.6,94.7,12.4c3.1,1.6,5.6,1.6,8.8,0.1
				C-423.6,4.3-376.8-3.5-328,0.2c6.8,0.5,13.5,1.4,20.6,2.2c-0.4-43.6,15.2-79.8,48.3-107.6c25.3-21.3,54.9-31.3,88.1-30.8
				c69.6,1,129.8,57.8,131.3,130.9c91.9-46,176-34.8,252.7,33.9C266.8-43,338.4-81.3,429.1-77.2c90.8,4.1,158.4,49.1,205.8,125.8
				c49.7-27,96.7-22.5,141.2,13.6C824.7,28.6,878.7,11,938.2,10.8c59.6-0.2,113.7,17.1,162.7,50.3c37.2-34.3,79.3-44.1,125.4-22.8
				C1266.5,56.8,1288.1,90.4,1288.5,134.8z M1242.7,165.8c0-21.7,0-43.1,0-64.9c-5.2,0-10.2,0.2-15.2-0.1c-3.6-0.2-5.2,0.9-6.3,4.5
				c-4,13.2-8.3,26.2-12.8,40.2c-1-2.4-1.7-4.1-2.3-5.8c-4-11.8-8-23.6-12.2-35.4c-0.5-1.4-2.1-3.2-3.3-3.3
				c-5.8-0.3-11.6-0.2-17.6-0.2c0,21.9,0,43.3,0,64.8c4.4,0,8.6,0,13.3,0c0-14.5,0-28.6,0-42.7c5.4,13.1,10.3,26.1,14.6,39.4
				c1.3,4.1,3.9,3.7,6.9,3.7c2.9,0,5.6,0.6,6.9-3.6c3.8-12.2,8.2-24.2,12.4-36.3c0.5-1.4,1.2-2.8,1.8-4.2c0.3,0.1,0.7,0.2,1,0.3
				c0,14.5,0,29,0,43.6C1234.5,165.8,1238.6,165.8,1242.7,165.8z M1164.8,112.8c0-4.2,0-7.9,0-11.6c-17.9,0-35.4,0-52.9,0
				c0,4.1,0,7.8,0,11.9c6.5,0,12.6,0,19.2,0c0,17.8,0,35.2,0,52.8c5,0,9.4,0,14.7,0c0-17.8,0-35.2,0-53
				C1152.5,112.8,1158.6,112.8,1164.8,112.8z"/>
		</g>
		<g>
		</g>
	</g>
	<path class="st1" d="M664.3,287.9c-0.1,23.9-3.4,47.1-13.5,69c-19.5,42.3-69.1,58.4-107.9,35.1c-15.7-9.4-26.1-23.3-32.4-40.1
		c-16-42.8-16.5-86.1-0.3-128.8c9.3-24.5,26.5-41.9,53.3-47.1c40.1-7.9,72.9,10.3,89.4,49C660.7,242.9,664.6,264.7,664.3,287.9z"/>
	<path class="st1" d="M861.1,247.8c8.7-45.2,39.9-85.3,100.8-81.8c40.9,2.3,80.3,42.2,80,81.8C981.6,247.8,921.4,247.8,861.1,247.8z
		"/>
</g>
</svg>
