<?xml version="1.0" encoding="utf-8"?>
<!-- Generator: Adobe Illustrator 22.1.0, SVG Export Plug-In . SVG Version: 6.00 Build 0)  -->
<svg version="1.1" id="Layer_1" xmlns="http://www.w3.org/2000/svg" xmlns:xlink="http://www.w3.org/1999/xlink" x="0px" y="0px"
	 viewBox="0 0 600 600" style="enable-background:new 0 0 600 600;" xml:space="preserve">
<style type="text/css">
	.st0{fill:#7B519D;}
	.st1{fill:#FDFDFD;}
	.st2{fill:#FBFBFC;}
	.st3{fill:#FBFAFC;}
</style>
<g>
	<g>
		<path class="st0" d="M44.1,556c0-170.2,0-340.4,0-510.8c171.4,0,342.8,0,514.6,0c0,170.1,0,340.5,0,510.8
			C387.4,556,215.8,556,44.1,556z M117.4,184.5c0.9,4.6,1.2,9.6,2.9,13.9c7.5,19,13.9,38.6,23.3,56.6
			c53.9,103.1,135.1,177,243.7,221.2c15,6.1,28.9,5.3,42.1-3.3c17.3-11.2,30.4-26.5,39.3-45c6-12.5,2.9-23.8-7.8-32.9
			c-5.2-4.4-10.3-9.1-15.9-13c-15.7-11-31.2-22.3-47.5-32.2c-15.8-9.6-30.3-6.1-41.8,8c-2.6,3.2-5.1,6.4-7.7,9.6
			c-9.2,11.5-15.7,13.5-29.5,9C287,365.9,263.4,345,243,320.1c-10.7-13.1-18.3-27.9-21.9-44.6c-2.4-11,0.2-20,9.7-26.9
			c5.8-4.2,11.2-9,16.5-13.8c7.1-6.3,9.2-14.3,6.5-23.2c-1.7-5.5-3.5-11.3-6.8-15.9c-11.5-16.5-23.4-32.7-35.6-48.7
			c-4.1-5.4-9.1-10.3-14.5-14.4c-9.9-7.6-21.3-8.7-31.7-1.8c-12.7,8.6-24.8,18.1-36.4,28.2C121.7,165.4,117.2,174,117.4,184.5z
			 M468.7,286.5c0.2,0,0.4,0,0.6-0.1c-1-8.8-1.8-17.6-3.1-26.3c-9.9-66.8-58.9-119.9-125.1-134.7c-12.9-2.9-26.4-3.7-39.7-4.6
			c-7.8-0.5-12.3,4.1-12.4,10.6c-0.1,6,3.8,9.8,11.2,10.7c3.7,0.4,7.5,0.6,11.3,0.8c66.7,3.7,120.6,50.9,132.3,116.4
			c2.3,12.7,2.7,25.6,4.1,38.5c0.7,6.4,5.6,11.4,11.3,10.8c6.3-0.7,9.9-4.5,10.1-10.9C469.3,294,468.9,290.2,468.7,286.5z
			 M426.8,269.1c-0.9-5.2-1.9-15.7-4.8-25.8c-13.2-46.6-53-77-104.9-80c-9.1-0.5-13.5,2.9-13.8,9.8c-0.3,6.8,3.4,10.1,12.6,11.4
			c4.1,0.6,8.1,1.1,12.2,1.8c45.3,7.3,76.2,42.8,76.8,88.4c0.1,11.9,3.7,17.5,11.1,17.4C423.6,291.8,427,286.3,426.8,269.1z
			 M385.9,263.7c-2.1-8.2-3.5-16.7-6.6-24.5c-8-20.1-30.5-33.8-52.4-32.8c-6.4,0.3-10.6,2.9-11.2,9.5c-0.5,6.3,2.5,10.4,8.9,11.7
			c3.4,0.7,6.8,0.8,10.2,1.5c13.2,2.6,22.4,9.9,26.2,22.9c1.3,4.5,1.8,9.3,2.5,14c1.2,7.8,5.4,12.3,11.4,11.9
			C381.8,277.6,385.2,272.7,385.9,263.7z"/>
		<path class="st1" d="M117.4,184.5c-0.2-10.5,4.4-19.1,11.7-25.5c11.6-10,23.7-19.6,36.4-28.2c10.3-7,21.8-5.8,31.7,1.8
			c5.4,4.1,10.4,9,14.5,14.4c12.2,16,24.1,32.2,35.6,48.7c3.2,4.6,5.1,10.4,6.8,15.9c2.7,8.9,0.6,16.9-6.5,23.2
			c-5.4,4.7-10.7,9.6-16.5,13.8c-9.5,6.9-12.1,15.9-9.7,26.9c3.6,16.7,11.2,31.5,21.9,44.6c20.4,24.9,44,45.8,75.5,56.2
			c13.9,4.6,20.3,2.5,29.5-9c2.6-3.2,5.1-6.4,7.7-9.6c11.4-14.1,26-17.6,41.8-8c16.3,9.9,31.8,21.3,47.5,32.2
			c5.6,3.9,10.6,8.6,15.9,13c10.7,9,13.8,20.4,7.8,32.9c-8.9,18.5-21.9,33.8-39.3,45c-13.2,8.5-27.1,9.4-42.1,3.3
			c-108.5-44.2-189.7-118-243.7-221.2c-9.4-18-15.9-37.6-23.3-56.6C118.6,194,118.3,189.1,117.4,184.5z"/>
		<path class="st2" d="M468.7,286.5c0.2,3.7,0.6,7.5,0.5,11.2c-0.2,6.4-3.8,10.1-10.1,10.9c-5.6,0.7-10.6-4.3-11.3-10.8
			c-1.3-12.8-1.8-25.8-4.1-38.5c-11.7-65.5-65.6-112.7-132.3-116.4c-3.8-0.2-7.5-0.4-11.3-0.8c-7.4-0.9-11.3-4.6-11.2-10.7
			c0.1-6.4,4.6-11.1,12.4-10.6c13.3,0.9,26.8,1.7,39.7,4.6c66.2,14.8,115.2,67.9,125.1,134.7c1.3,8.7,2.1,17.5,3.1,26.3
			C469.1,286.4,468.9,286.5,468.7,286.5z"/>
		<path class="st3" d="M426.8,269.1c0.2,17.2-3.2,22.8-10.8,22.8c-7.4,0.1-11-5.5-11.1-17.4c-0.6-45.6-31.4-81.1-76.8-88.4
			c-4.1-0.7-8.1-1.2-12.2-1.8c-9.2-1.3-13-4.6-12.6-11.4c0.3-6.9,4.7-10.3,13.8-9.8c51.9,3,91.7,33.4,104.9,80
			C424.9,253.3,425.9,263.9,426.8,269.1z"/>
		<path class="st3" d="M385.9,263.7c-0.7,9-4.1,13.8-10.9,14.2c-6,0.4-10.3-4.2-11.4-11.9c-0.7-4.7-1.2-9.5-2.5-14
			c-3.8-13.1-13-20.3-26.2-22.9c-3.4-0.7-6.8-0.8-10.2-1.5c-6.4-1.3-9.4-5.4-8.9-11.7c0.6-6.6,4.8-9.2,11.2-9.5
			c21.8-1,44.4,12.6,52.4,32.8C382.4,247.1,383.8,255.5,385.9,263.7z"/>
	</g>
</g>
</svg>
