<?xml version="1.0" encoding="utf-8"?>
<!-- Generator: Adobe Illustrator 22.1.0, SVG Export Plug-In . SVG Version: 6.00 Build 0)  -->
<svg version="1.1" id="Layer_1" xmlns="http://www.w3.org/2000/svg" xmlns:xlink="http://www.w3.org/1999/xlink" x="0px" y="0px"
	 viewBox="0 0 600 600" style="enable-background:new 0 0 600 600;" xml:space="preserve">
<style type="text/css">
	.st0{fill:#29A71A;}
	.st1{fill:#FFFFFF;}
	.st2{fill:#2EA81F;}
	.st3{fill:#2DA81E;}
	.st4{fill:#2AA71B;}
	.st5{fill:#31AA22;}
</style>
<g>
	<g id="XMLID_1_">
		<g>
			<path class="st0" d="M309.5,435.4c0.5,5.8,1.9,8.6,5.6,11.3c6.9,5.1,21.9,5.4,29,0.5c4.7-3.2,6.5-7.8,5.9-13.4
				c-0.6-5.2-4.2-7.7-8.6-9.3c-2.2-0.8-4.5-1.2-6.7-1.8c-3.2-0.9-6.5-1.5-9.5-2.8c-1.2-0.5-2.5-2.5-2.4-3.7c0.1-1.2,1.7-2.7,3-3.3
				c4.1-1.7,8.8,0,11.3,3.5c0.6,0.8,1.6,1.7,2.5,1.7c3,0.2,6.1,0.1,9.4,0.1c-0.9-7.1-4.5-11.6-10.5-12.6c-6.1-1-12.6-0.9-18.6,0.1
				c-6.4,1.1-9.6,6.2-9.6,12.3c0,5.4,3,9,9.8,11c4.6,1.4,9.4,2.2,13.9,3.9c1.7,0.7,4,3.3,3.8,4.7c-0.2,1.7-2.6,3.7-4.5,4.4
				c-5.7,1.9-9.6-0.3-13.2-6.6C316.4,435.4,313,435.4,309.5,435.4z M409.5,449.6c-0.6-1.9-0.9-3.1-1.4-4.3
				c-5.9-15.9-11.9-31.7-17.8-47.6c-3.7-9.9-3.7-10-14.4-9.1c-1.3,0.1-3.2,1.3-3.6,2.4c-7.4,19.2-14.6,38.5-22.2,58.6
				c3.9,0,7.1,0.4,10.2-0.1c1.6-0.3,3.8-1.8,4.4-3.2c4.2-10.2,4.1-10.2,15.1-10.2c11.1,0,11.1,0,15.1,10.3c0.5,1.3,1.9,3.1,3,3.2
				C401.5,449.8,405.3,449.6,409.5,449.6z M411.9,405.5c0,19.9,0,39.6,0,59.4c3.9,0,7.6,0,12.1,0c0-6.8,0-13.1,0-19.8
				c13.9,10.9,29.7,4.6,32.1-12.3c0.4-3.1,0.3-6.3,0.1-9.4c-1.2-16.7-19.2-25.8-32.8-13.5c-0.2-1.5-0.4-2.9-0.6-4.3
				C419.1,405.5,415.6,405.5,411.9,405.5z M307.5,440.6c-3.2-1-8,1.5-8.3-3.6c-0.5-7.7-0.1-15.5-0.1-23.3c3.2-0.1,5.8-0.3,8.5-0.4
				c0-2.7,0-5.1,0-7.8c-3-0.2-5.7-0.4-8.8-0.5c0-4.5,0-8.6,0-12.6c-4.2,0-8,0-12.2,0c0,4.4,0,8.5,0,12.6c-2.6,0.2-4.7,0.3-7.1,0.5
				c0,2.7,0,5.1,0,7.7c2.3,0.2,4.4,0.4,6.7,0.6c0.3,0.8,0.5,1.1,0.5,1.4c0,7.5,0,15,0.1,22.4c0,8.9,3,12,11.9,12.3
				c2.9,0.1,5.9,0,8.9,0C307.5,446.2,307.5,443.4,307.5,440.6z M547,158.5c0.1,47.3,0,94.6,0,142c0,47,0.1,94,0,141
				c-0.1,47.5-31.7,87.3-77.9,97.9c-7.1,1.6-14.5,2.5-21.8,2.5c-94.5,0.2-189,0.1-283.4,0.1c-55.1,0-99.8-44.6-99.9-99.7
				c-0.1-94.5-0.1-189,0-283.5c0.1-55.1,44.8-99.8,99.9-99.8c94.5,0,189-0.1,283.5,0C502.1,59.1,546.8,103.7,547,158.5z
				 M501.5,441.6c5-9.6,4.9-19.3-0.4-28.6c-4.4-7.7-13.9-10.9-22.2-7.8c-2.5,1-4.6,2.8-6.7,4.1c-2.1-7.4-7.8-2.4-11.9-4.4
				c0,20.7,0,40.3,0,59.8c4.1,0,7.8,0,11.8,0c0-3.5,0-6.6,0-9.8c0-3.2,0-6.4,0-10.3C483.6,455.1,497,450.2,501.5,441.6z
				 M323.6,344.7c55.6-9.2,93.4-58.1,88.5-114.2c-5.3-60.3-62.5-104.5-121.9-94.2c-72.5,12.6-110.4,90.4-75.7,155.3
				c1.1,2,1.3,5.1,0.6,7.3c-5.5,17.2-11.4,34.4-17.4,52.4c1.7-0.5,2.7-0.7,3.6-1c16.9-5.4,33.8-10.9,50.8-16.1
				c2.2-0.7,5.3-0.4,7.3,0.6C279.9,344.6,301.3,348.4,323.6,344.7z M276.1,449.6c0-10.8,0-21.3,0-31.7c0-7.2-3.1-11.6-10.1-12.6
				c-5.8-0.8-12-0.8-17.8,0.1c-7.4,1.2-11.2,6.1-12,13.4c3.8,0,7.6,0,11.5,0c0.5-1.1,0.8-2.5,1.6-3.5c2.9-3.7,7.1-3.8,10.9-2.2
				c1.7,0.7,3.6,3.7,3.5,5.5c-0.2,4.1-4.1,4-7.2,4.5c-4.2,0.7-8.6,1.1-12.7,2.3c-6.5,1.8-9.4,6.2-9.1,13c0.3,6.3,3.8,10.4,10.2,11.7
				c7,1.5,13.4,0,18.8-3.7C267.4,452.1,272.6,448.5,276.1,449.6z M229.1,449.2c0-10.5,0.1-20.6-0.1-30.8c-0.1-5.9-2.3-10.9-8.2-13.1
				c-6.3-2.3-12.4-1.8-17.8,2.8c-0.9,0.8-1.7,1.5-3.3,2.9c0-8.1,0-15.2,0-22.2c-4.1,0-7.8,0-11.5,0c0,20.3,0,40.3,0,60.4
				c4,0,7.7,0,11.9,0c0-5.4-0.1-10.5,0-15.7c0.1-4.5,0.1-9,0.9-13.4c0.9-5,4.3-6.8,9.7-6.3c4.7,0.4,6.1,3.6,6.3,7.5
				c0.2,4.2,0.2,8.3,0.2,12.5c0,5.1,0,10.2,0,15.3C221.6,449.2,225.3,449.2,229.1,449.2z M185.1,388.8c-4.7,0-8.8,0-13.1,0
				c-3.2,13.3-6.4,26.4-9.5,39.6c-1.5-1.7-2-3.4-2.4-5.1c-2.6-10.5-5.2-21-7.9-31.4c-0.3-1.2-1.3-2.9-2.3-3.2
				c-7.4-2.2-11,0-12.9,7.5c-2.7,10.6-5.5,21.2-8.2,31.8c-1.2-1-1.5-1.9-1.7-2.8c-2.6-11.2-5.2-22.3-8-33.5c-0.3-1.2-1.8-3-2.8-3.1
				c-3.6-0.4-7.2-0.1-11.2-0.1c5.5,20.8,10.9,40.9,16.1,60.8c5,0,9.3,0,13.7,0c3.3-13.2,6.5-26.2,9.7-39.2c0.4,0,0.7,0,1.1,0
				c3.3,13,6.5,26,9.8,39.2c4.5,0,8.8,0,13.4,0C174.3,429.2,179.7,409.1,185.1,388.8z"/>
			<path class="st1" d="M501.1,413c5.3,9.3,5.5,19.1,0.4,28.6c-4.5,8.6-17.9,13.5-29.4,3.1c0,3.8,0,7,0,10.3c0,3.1,0,6.3,0,9.8
				c-4,0-7.7,0-11.8,0c0-19.5,0-39.1,0-59.8c4.1,2,9.8-3,11.9,4.4c2.1-1.3,4.2-3.1,6.7-4.1C487.2,402.1,496.7,405.3,501.1,413z
				 M491.3,435.8c2.2-5.5,2.2-11-0.1-16.4c-1.8-4.1-5-6.2-9.4-6c-4.4,0.2-7.5,2.6-8.8,6.8c-0.7,2.2-1,4.5-1.5,7.2
				c0.6,2.6,0.8,5.6,1.9,8.4c1.5,4,4.8,5.9,9,5.9C486.5,441.6,489.7,439.7,491.3,435.8z"/>
			<path class="st2" d="M491.2,419.3c2.4,5.4,2.3,11,0.1,16.4c-1.6,4-4.8,5.9-9,5.8c-4.2,0-7.5-1.9-9-5.9c-1-2.7-1.3-5.8-1.9-8.4
				c0.5-2.7,0.8-5,1.5-7.2c1.3-4.2,4.4-6.6,8.8-6.8C486.2,413.1,489.4,415.3,491.2,419.3z"/>
			<path class="st1" d="M456.2,423.3c0.2,3.1,0.4,6.3-0.1,9.4c-2.4,16.9-18.2,23.2-32.1,12.3c0,6.7,0,13.1,0,19.8
				c-4.5,0-8.1,0-12.1,0c0-19.8,0-39.5,0-59.4c3.7,0,7.1,0,10.8,0c0.2,1.4,0.4,2.8,0.6,4.3C436.9,397.6,455,406.6,456.2,423.3z
				 M438.9,440.3c4.6-2.7,5.3-7.3,5.9-12.2c-0.6-2.9-0.9-5.9-1.9-8.6c-1.5-4.1-4.8-6.3-9.2-6.2c-4.7,0.1-8.3,2.6-9.1,7.1
				c-0.8,4.6-1,9.6,0,14.1C426,440.9,433.5,443.5,438.9,440.3z"/>
			<path class="st3" d="M444.8,428.2c-0.6,4.9-1.3,9.5-5.9,12.2c-5.4,3.2-12.9,0.5-14.3-5.8c-1-4.5-0.8-9.5,0-14.1
				c0.8-4.4,4.4-7,9.1-7.1c4.4-0.1,7.7,2.1,9.2,6.2C443.9,422.3,444.2,425.3,444.8,428.2z"/>
			<path class="st1" d="M412.2,230.5c4.9,56-32.9,105-88.5,114.2c-22.3,3.7-43.7,0-64.1-9.9c-2.1-1-5.1-1.3-7.3-0.6
				c-17,5.2-33.9,10.7-50.8,16.1c-0.9,0.3-1.8,0.5-3.6,1c6.1-18.1,11.9-35.2,17.4-52.4c0.7-2.2,0.5-5.3-0.6-7.3
				c-34.8-64.8,3.1-142.7,75.7-155.3C349.7,126,406.9,170.3,412.2,230.5z M322.8,327.8c43.3-7.5,74.7-46.6,73.1-90.9
				c-1.6-43.8-36.3-81-80.3-84.5c-36.2-2.9-65.1,11.3-84,42.3c-18.9,31-17.8,62.9,1.2,93.9c1.8,3,2.3,5.4,1.1,8.7
				c-3.3,9-6.2,18.1-9.6,28.2c10.9-3.5,20.5-6.7,30.2-9.4c2.2-0.6,5.3-0.3,7.2,0.9C280.8,327.7,301.2,331.5,322.8,327.8z"/>
			<path class="st1" d="M408.1,445.3c0.5,1.2,0.8,2.4,1.4,4.3c-4.3,0-8,0.2-11.8-0.2c-1.1-0.1-2.5-1.9-3-3.2
				c-4-10.2-3.9-10.3-15.1-10.3c-11,0-10.9,0-15.1,10.2c-0.6,1.5-2.8,3-4.4,3.2c-3.1,0.5-6.2,0.1-10.2,0.1
				c7.6-20.1,14.8-39.4,22.2-58.6c0.4-1.1,2.3-2.3,3.6-2.4c10.7-0.9,10.7-0.8,14.4,9.1C396.3,413.5,402.2,429.4,408.1,445.3z
				 M372,425.7c5.3,0,10.2,0,15.6,0c-2.5-7.3-4.9-14-7.7-22.2C376.9,411.8,374.5,418.7,372,425.7z"/>
			<path class="st4" d="M395.9,236.8c1.6,44.3-29.8,83.5-73.1,90.9c-21.6,3.7-42-0.1-61.1-11c-2-1.1-5-1.5-7.2-0.9
				c-9.7,2.8-19.3,6-30.2,9.4c3.4-10.1,6.3-19.2,9.6-28.2c1.2-3.3,0.7-5.7-1.1-8.7c-18.9-31-20-62.9-1.2-93.9
				c18.9-31,47.8-45.2,84-42.3C359.5,155.8,394.3,193.1,395.9,236.8z M360.7,270.2c0.6-3.8-0.1-6.4-4-8c-4-1.6-7.8-3.7-11.7-5.6
				c-12.7-6.4-11.3-4.4-17.6,4.1c-0.4,0.5-0.9,1-1.2,1.6c-2.4,3.6-5.5,4.3-9.5,2.5c-11.7-5.1-21.4-12.7-29-23
				c-6.6-9-6.4-8.9,0.3-17.5c1.6-2,2.9-5.6,2.2-7.9c-2.1-6.8-5.1-13.3-8.1-19.8c-0.7-1.6-2.5-3.5-4-3.8c-5.4-1.2-10.5-0.4-14.7,4
				c-8.9,9.5-10.6,23.5-3.2,37.2c9.9,18.3,23.3,33.7,41.4,44.4c10.7,6.3,22.2,10.5,32.5,11.7C349.1,290,358.7,282.1,360.7,270.2z"/>
			<path class="st5" d="M387.6,425.7c-5.4,0-10.3,0-15.6,0c2.5-7,4.9-13.9,7.9-22.2C382.7,411.6,385.1,418.4,387.6,425.7z"/>
			<path class="st1" d="M356.7,262.3c3.8,1.6,4.6,4.2,4,8c-1.9,11.9-11.6,19.8-26.5,19.8c-10.3-1.2-21.8-5.4-32.5-11.7
				c-18.1-10.7-31.5-26.1-41.4-44.4c-7.4-13.6-5.7-27.6,3.2-37.2c4.1-4.4,9.2-5.2,14.7-4c1.6,0.3,3.3,2.2,4,3.8c3,6.5,6,13,8.1,19.8
				c0.7,2.2-0.6,5.8-2.2,7.9c-6.7,8.6-6.9,8.5-0.3,17.5c7.5,10.4,17.2,17.9,29,23c4,1.8,7.1,1.1,9.5-2.5c0.4-0.6,0.8-1.1,1.2-1.6
				c6.2-8.5,4.9-10.5,17.6-4.1C348.9,258.6,352.7,260.6,356.7,262.3z"/>
			<path class="st1" d="M350.1,433.8c0.6,5.6-1.2,10.1-5.9,13.4c-7.1,4.9-22.1,4.6-29-0.5c-3.7-2.8-5.1-5.5-5.6-11.3
				c3.5,0,6.9,0,10.4,0c3.6,6.3,7.5,8.5,13.2,6.6c1.9-0.6,4.3-2.7,4.5-4.4c0.2-1.4-2.1-4-3.8-4.7c-4.5-1.7-9.3-2.6-13.9-3.9
				c-6.7-2-9.8-5.6-9.8-11c0-6,3.3-11.2,9.6-12.3c6.1-1,12.6-1.1,18.6-0.1c6,1,9.6,5.5,10.5,12.6c-3.3,0-6.4,0.1-9.4-0.1
				c-0.9-0.1-1.9-0.9-2.5-1.7c-2.5-3.5-7.2-5.2-11.3-3.5c-1.3,0.5-2.9,2.1-3,3.3c-0.1,1.2,1.2,3.2,2.4,3.7c3,1.3,6.3,1.9,9.5,2.8
				c2.2,0.6,4.5,1,6.7,1.8C345.9,426.1,349.5,428.6,350.1,433.8z"/>
			<path class="st1" d="M307.6,405.5c0,2.7,0,5.1,0,7.8c-2.8,0.1-5.4,0.2-8.5,0.4c0,7.8-0.4,15.6,0.1,23.3c0.3,5.1,5.2,2.6,8.3,3.6
				c0,2.7,0,5.6,0,9.3c-3,0-5.9,0.1-8.9,0c-8.8-0.3-11.8-3.4-11.9-12.3c0-7.5,0-15-0.1-22.4c0-0.3-0.2-0.6-0.5-1.4
				c-2.3-0.2-4.4-0.4-6.7-0.6c0-2.6,0-5,0-7.7c2.4-0.2,4.5-0.3,7.1-0.5c0-4.2,0-8.2,0-12.6c4.2,0,7.9,0,12.2,0c0,4,0,8.1,0,12.6
				C301.9,405.2,304.6,405.3,307.6,405.5z"/>
			<path class="st1" d="M276.1,417.8c0,10.4,0,20.9,0,31.7c-3.5-1.1-8.7,2.6-12.3-3.2c-5.4,3.7-11.8,5.2-18.8,3.7
				c-6.4-1.4-9.9-5.4-10.2-11.7c-0.3-6.9,2.6-11.3,9.1-13c4.1-1.1,8.5-1.5,12.7-2.3c3.1-0.5,7-0.4,7.2-4.5c0.1-1.9-1.8-4.8-3.5-5.5
				c-3.8-1.6-7.9-1.4-10.9,2.2c-0.8,1-1.1,2.4-1.6,3.5c-4,0-7.7,0-11.5,0c0.8-7.4,4.6-12.3,12-13.4c5.8-0.9,11.9-0.9,17.8-0.1
				C273,406.2,276.1,410.7,276.1,417.8z M252,442.2c8.2,2,12.4-2.8,11.8-13.6c-4.4,0.9-8.7,1.5-12.8,2.7c-3,0.8-5,3.4-3.9,6.4
				C247.8,439.7,250.1,441.8,252,442.2z"/>
			<path class="st5" d="M263.8,428.6c0.6,10.8-3.5,15.6-11.8,13.6c-1.9-0.5-4.2-2.6-4.9-4.5c-1.1-3,0.9-5.6,3.9-6.4
				C255.1,430.2,259.4,429.5,263.8,428.6z"/>
			<path class="st1" d="M229.1,418.5c0.2,10.1,0.1,20.3,0.1,30.8c-3.8,0-7.6,0-12,0c0-5.1,0-10.2,0-15.3c0-4.2,0.1-8.3-0.2-12.5
				c-0.2-3.9-1.7-7.1-6.3-7.5c-5.4-0.5-8.8,1.4-9.7,6.3c-0.8,4.4-0.7,8.9-0.9,13.4c-0.1,5.1,0,10.3,0,15.7c-4.1,0-7.9,0-11.9,0
				c0-20.1,0-40.1,0-60.4c3.7,0,7.4,0,11.5,0c0,7,0,14.1,0,22.2c1.6-1.4,2.5-2.2,3.3-2.9c5.4-4.6,11.5-5.1,17.8-2.8
				C226.8,407.6,229,412.6,229.1,418.5z"/>
			<path class="st1" d="M172,388.8c4.3,0,8.4,0,13.1,0c-5.4,20.3-10.9,40.4-16.3,60.6c-4.6,0-8.9,0-13.4,0
				c-3.3-13.2-6.6-26.2-9.8-39.2c-0.4,0-0.7,0-1.1,0c-3.2,13-6.4,26-9.7,39.2c-4.4,0-8.7,0-13.7,0c-5.3-19.8-10.6-40-16.1-60.8
				c4.1,0,7.7-0.2,11.2,0.1c1.1,0.1,2.5,1.8,2.8,3.1c2.8,11.1,5.3,22.3,8,33.5c0.2,0.9,0.6,1.8,1.7,2.8c2.7-10.6,5.5-21.2,8.2-31.8
				c1.9-7.5,5.5-9.7,12.9-7.5c1,0.3,2,2,2.3,3.2c2.7,10.5,5.3,21,7.9,31.4c0.4,1.7,0.9,3.4,2.4,5.1
				C165.6,415.2,168.8,402.1,172,388.8z"/>
		</g>
		<g>
		</g>
	</g>
</g>
</svg>
